<?xml version="1.0" encoding="UTF-8" standalone="no"?>
<!DOCTYPE svg PUBLIC "-//W3C//DTD SVG 1.1//EN" "http://www.w3.org/Graphics/SVG/1.1/DTD/svg11.dtd">
<svg xmlns="http://www.w3.org/2000/svg" version="1.1" viewBox="0 0 500 500">
<g stroke-width="2.00" fill="none" stroke-linecap="butt">
<path stroke="#82d6fa" vector-effect="non-scaling-stroke" d="
  M 244.31 0.00
  Q 155.51 3.23 88.73 59.14
  C 42.43 97.90 12.99 151.51 2.98 211.24
  Q 0.70 224.80 0.00 246.69"
/>
<path stroke="#82d6fa" vector-effect="non-scaling-stroke" d="
  M 256.06 0.00
  Q 281.34 1.02 300.43 5.05
  C 354.72 16.53 404.82 45.78 440.76 88.58
  Q 498.40 157.24 500.00 248.81"
/>
<path stroke="#82d6fa" vector-effect="non-scaling-stroke" d="
  M 500.00 251.56
  C 497.98 389.04 390.17 497.17 252.44 500.00"
/>
<path stroke="#82d6fa" vector-effect="non-scaling-stroke" d="
  M 247.19 500.00
  C 180.61 498.62 116.74 472.11 70.53 423.87
  Q 2.58 352.92 0.00 252.44"
/>
<path stroke="#4fb5e5" vector-effect="non-scaling-stroke" d="
  M 267.53 49.37
  A 7.52 7.52 0.0 0 0 260.01 41.85
  A 7.52 7.52 0.0 0 0 252.49 49.37
  A 7.52 7.52 0.0 0 0 260.01 56.89
  A 7.52 7.52 0.0 0 0 267.53 49.37"
/>
<path stroke="#4fb5e5" vector-effect="non-scaling-stroke" d="
  M 241.78 65.15
  A 8.69 8.69 0.0 0 0 233.09 56.46
  A 8.69 8.69 0.0 0 0 224.40 65.15
  A 8.69 8.69 0.0 0 0 233.09 73.84
  A 8.69 8.69 0.0 0 0 241.78 65.15"
/>
<path stroke="#4fb5e5" vector-effect="non-scaling-stroke" d="
  M 278.12 92.02
  A 18.11 18.11 0.0 0 0 260.01 73.91
  A 18.11 18.11 0.0 0 0 241.90 92.02
  A 18.11 18.11 0.0 0 0 260.01 110.13
  A 18.11 18.11 0.0 0 0 278.12 92.02"
/>
<path stroke="#77ccf1" vector-effect="non-scaling-stroke" d="
  M 386.47 345.18
  C 398.85 254.86 322.78 176.67 231.99 187.86
  C 227.08 188.46 223.76 188.40 220.46 185.06
  C 214.68 179.20 215.86 169.00 223.69 165.52
  Q 225.99 164.49 230.46 164.49
  Q 260.11 164.50 289.76 164.51
  Q 298.35 164.51 302.04 163.03
  C 311.70 159.15 314.89 147.45 312.21 137.80
  C 309.42 127.73 301.99 124.74 292.04 124.64
  Q 260.89 124.32 229.75 124.61
  Q 203.80 124.85 187.43 142.93
  C 161.60 171.46 171.13 220.56 209.15 233.41
  A 2.77 2.72 -45.5 0 0 211.01 233.38
  C 263.60 213.14 320.73 238.27 341.00 290.59
  C 357.66 333.62 341.64 382.51 303.65 408.15
  C 239.87 451.19 152.79 408.19 148.78 331.25
  Q 146.83 294.07 170.00 264.45
  Q 173.48 260.00 177.26 255.61
  A 0.53 0.53 43.0 0 0 177.23 254.89
  L 150.13 227.78
  A 0.39 0.38 -44.5 0 0 149.58 227.78
  C 108.71 269.44 97.67 330.67 121.81 383.76
  C 159.80 467.30 266.28 489.82 336.75 433.35
  C 363.75 411.71 381.77 379.43 386.47 345.18"
/>
<path stroke="#037fc1" vector-effect="non-scaling-stroke" d="
  M 166.54 284.00
  C 155.85 304.76 154.46 330.10 161.31 352.37
  C 171.01 383.89 197.90 407.96 230.19 414.49
  C 308.50 430.34 368.41 344.80 326.09 276.85"
/>
<path stroke="#4fb5e5" vector-effect="non-scaling-stroke" d="
  M 326.09 276.85
  C 323.69 272.41 319.06 269.94 314.22 269.18
  Q 298.31 266.69 282.31 268.54
  C 267.85 270.21 257.69 277.99 246.98 283.48
  Q 237.79 288.20 227.80 284.10
  C 212.65 277.89 196.87 267.76 179.81 274.09
  C 173.59 276.40 169.14 278.20 166.54 284.00"
/>
<path stroke="#4e88b2" vector-effect="non-scaling-stroke" d="
  M 326.09 276.85
  C 321.21 281.64 306.47 281.03 299.49 280.65
  C 286.73 279.95 277.48 281.43 266.18 284.66
  C 250.61 289.11 236.86 297.64 220.44 299.89
  C 203.11 302.27 180.90 293.26 166.54 284.00"
/>
<path stroke="#5992b8" vector-effect="non-scaling-stroke" d="
  M 176.17 305.38
  A 3.97 3.97 0.0 0 0 172.20 301.41
  A 3.97 3.97 0.0 0 0 168.23 305.38
  A 3.97 3.97 0.0 0 0 172.20 309.35
  A 3.97 3.97 0.0 0 0 176.17 305.38"
/>
<path stroke="#538db5" vector-effect="non-scaling-stroke" d="
  M 310.50 309.19
  A 5.33 5.33 0.0 0 0 305.17 303.86
  A 5.33 5.33 0.0 0 0 299.84 309.19
  A 5.33 5.33 0.0 0 0 305.17 314.52
  A 5.33 5.33 0.0 0 0 310.50 309.19"
/>
<path stroke="#4e88b2" vector-effect="non-scaling-stroke" d="
  M 263.7686 321.4325
  A 0.42 0.42 0.0 0 0 263.5635 320.8751
  L 257.3362 317.9976
  A 0.42 0.42 0.0 0 0 256.7787 318.2027
  L 233.3314 368.9475
  A 0.42 0.42 0.0 0 0 233.5365 369.5049
  L 239.7638 372.3824
  A 0.42 0.42 0.0 0 0 240.3213 372.1773
  L 263.7686 321.4325"
/>
<path stroke="#538db5" vector-effect="non-scaling-stroke" d="
  M 190.19 326.58
  L 191.91 328.19
  A 1.01 0.74 -27.1 0 0 192.77 328.33
  Q 193.79 328.05 194.79 328.39
  A 1.06 0.88 33.1 0 0 195.66 328.29
  Q 201.37 324.32 196.31 319.42
  A 1.40 1.33 -19.2 0 0 195.45 319.03
  Q 188.40 318.46 189.26 325.81
  A 0.38 0.31 -82.0 0 0 189.43 326.09
  L 189.59 326.18
  Q 189.99 326.40 190.19 326.58"
/>
<path stroke="#4e88b2" vector-effect="non-scaling-stroke" d="
  M 293.25 344.45
  L 271.39 356.88
  A 2.23 1.92 -18.5 0 0 270.25 358.79
  L 270.67 365.27
  A 0.34 0.32 -17.5 0 0 271.17 365.51
  L 302.95 346.88
  A 1.37 1.23 -8.3 0 0 303.55 346.16
  Q 304.24 344.15 303.63 341.97
  A 1.28 1.17 7.8 0 0 303.03 341.25
  L 271.17 324.50
  A 0.37 0.37 -71.0 0 0 270.64 324.76
  Q 270.08 328.11 270.52 331.67
  A 0.94 0.85 11.8 0 0 271.03 332.37
  L 293.26 343.94
  Q 293.72 344.18 293.25 344.45"
/>
<path stroke="#4e88b2" vector-effect="non-scaling-stroke" d="
  M 204.00 343.83
  L 226.18 332.39
  A 0.91 0.71 -17.1 0 0 226.68 331.67
  L 226.55 324.91
  A 0.35 0.33 -15.1 0 0 226.04 324.64
  L 194.46 341.27
  A 1.46 1.33 -4.4 0 0 193.81 341.96
  C 192.77 344.49 193.31 346.23 195.76 347.65
  Q 211.28 356.66 226.75 365.78
  Q 227.22 366.06 227.22 365.51
  L 227.22 358.35
  A 1.54 1.39 16.1 0 0 226.44 357.09
  L 203.99 344.32
  Q 203.54 344.07 204.00 343.83"
/>
<path stroke="#538db5" vector-effect="non-scaling-stroke" d="
  M 329.37 345.73
  A 3.54 3.54 0.0 0 0 325.83 342.19
  A 3.54 3.54 0.0 0 0 322.29 345.73
  A 3.54 3.54 0.0 0 0 325.83 349.27
  A 3.54 3.54 0.0 0 0 329.37 345.73"
/>
<path stroke="#5992b8" vector-effect="non-scaling-stroke" d="
  M 186.68 374.18
  A 2.46 2.46 0.0 0 0 184.22 371.72
  A 2.46 2.46 0.0 0 0 181.76 374.18
  A 2.46 2.46 0.0 0 0 184.22 376.64
  A 2.46 2.46 0.0 0 0 186.68 374.18"
/>
<path stroke="#538db5" vector-effect="non-scaling-stroke" d="
  M 216.57 386.95
  A 1.08 0.74 -55.5 0 0 217.43 386.62
  L 219.28 384.79
  A 1.37 0.58 -36.4 0 0 219.74 384.01
  Q 220.12 377.66 213.77 377.78
  A 1.44 1.36 -65.0 0 0 212.88 378.13
  Q 207.67 382.82 213.29 387.07
  A 0.86 0.72 -37.4 0 0 214.12 387.11
  Q 215.14 386.63 216.57 386.95"
/>
<path stroke="#538db5" vector-effect="non-scaling-stroke" d="
  M 269.53 387.48
  A 2.49 2.49 0.0 0 0 267.04 384.99
  A 2.49 2.49 0.0 0 0 264.55 387.48
  A 2.49 2.49 0.0 0 0 267.04 389.97
  A 2.49 2.49 0.0 0 0 269.53 387.48"
/>
<path stroke="#5992b8" vector-effect="non-scaling-stroke" d="
  M 298.32 393.24
  A 3.56 3.56 0.0 0 0 294.76 389.68
  A 3.56 3.56 0.0 0 0 291.20 393.24
  A 3.56 3.56 0.0 0 0 294.76 396.80
  A 3.56 3.56 0.0 0 0 298.32 393.24"
/>
<path stroke="#427fab" vector-effect="non-scaling-stroke" d="
  M 219.97 401.61
  A 1.68 1.68 0.0 0 0 218.29 399.93
  A 1.68 1.68 0.0 0 0 216.61 401.61
  A 1.68 1.68 0.0 0 0 218.29 403.29
  A 1.68 1.68 0.0 0 0 219.97 401.61"
/>
<path stroke="#427fab" vector-effect="non-scaling-stroke" d="
  M 275.15 406.35
  A 1.71 1.71 0.0 0 0 273.44 404.64
  A 1.71 1.71 0.0 0 0 271.73 406.35
  A 1.71 1.71 0.0 0 0 273.44 408.06
  A 1.71 1.71 0.0 0 0 275.15 406.35"
/>
<path stroke="#427fab" vector-effect="non-scaling-stroke" d="
  M 251.07 408.16
  A 1.71 1.71 0.0 0 0 249.36 406.45
  A 1.71 1.71 0.0 0 0 247.65 408.16
  A 1.71 1.71 0.0 0 0 249.36 409.87
  A 1.71 1.71 0.0 0 0 251.07 408.16"
/>
<path stroke="#5992b8" vector-effect="non-scaling-stroke" d="
  M 174.11 305.34
  A 1.86 1.86 0.0 0 0 172.25 303.48
  A 1.86 1.86 0.0 0 0 170.39 305.34
  A 1.86 1.86 0.0 0 0 172.25 307.20
  A 1.86 1.86 0.0 0 0 174.11 305.34"
/>
<path stroke="#538db5" vector-effect="non-scaling-stroke" d="
  M 307.36 309.16
  A 2.23 2.23 0.0 0 0 305.13 306.93
  A 2.23 2.23 0.0 0 0 302.90 309.16
  A 2.23 2.23 0.0 0 0 305.13 311.39
  A 2.23 2.23 0.0 0 0 307.36 309.16"
/>
<path stroke="#538db5" vector-effect="non-scaling-stroke" d="
  M 195.90 323.59
  A 2.02 2.02 0.0 0 0 193.88 321.57
  A 2.02 2.02 0.0 0 0 191.86 323.59
  A 2.02 2.02 0.0 0 0 193.88 325.61
  A 2.02 2.02 0.0 0 0 195.90 323.59"
/>
<path stroke="#538db5" vector-effect="non-scaling-stroke" d="
  M 327.34 345.75
  A 1.53 1.53 0.0 0 0 325.81 344.22
  A 1.53 1.53 0.0 0 0 324.28 345.75
  A 1.53 1.53 0.0 0 0 325.81 347.28
  A 1.53 1.53 0.0 0 0 327.34 345.75"
/>
<path stroke="#5992b8" vector-effect="non-scaling-stroke" d="
  M 184.1124 375.1778
  A 1.02 0.87 93.8 0 0 185.0481 374.2177
  A 1.02 0.87 93.8 0 0 184.2476 373.1422
  A 1.02 0.87 93.8 0 0 183.3119 374.1023
  A 1.02 0.87 93.8 0 0 184.1124 375.1778"
/>
<path stroke="#538db5" vector-effect="non-scaling-stroke" d="
  M 217.10 382.53
  A 1.97 1.97 0.0 0 0 215.13 380.56
  A 1.97 1.97 0.0 0 0 213.16 382.53
  A 1.97 1.97 0.0 0 0 215.13 384.50
  A 1.97 1.97 0.0 0 0 217.10 382.53"
/>
<path stroke="#538db5" vector-effect="non-scaling-stroke" d="
  M 268.01 387.29
  A 1.00 1.00 0.0 0 0 267.01 386.29
  A 1.00 1.00 0.0 0 0 266.01 387.29
  A 1.00 1.00 0.0 0 0 267.01 388.29
  A 1.00 1.00 0.0 0 0 268.01 387.29"
/>
<path stroke="#5992b8" vector-effect="non-scaling-stroke" d="
  M 296.41 393.15
  A 1.62 1.62 0.0 0 0 294.79 391.53
  A 1.62 1.62 0.0 0 0 293.17 393.15
  A 1.62 1.62 0.0 0 0 294.79 394.77
  A 1.62 1.62 0.0 0 0 296.41 393.15"
/>
</g>
<path fill="#04acf4" d="
  M 244.31 0.00
  L 256.06 0.00
  Q 281.34 1.02 300.43 5.05
  C 354.72 16.53 404.82 45.78 440.76 88.58
  Q 498.40 157.24 500.00 248.81
  L 500.00 251.56
  C 497.98 389.04 390.17 497.17 252.44 500.00
  L 247.19 500.00
  C 180.61 498.62 116.74 472.11 70.53 423.87
  Q 2.58 352.92 0.00 252.44
  L 0.00 246.69
  Q 0.70 224.80 2.98 211.24
  C 12.99 151.51 42.43 97.90 88.73 59.14
  Q 155.51 3.23 244.31 0.00
  Z
  M 267.53 49.37
  A 7.52 7.52 0.0 0 0 260.01 41.85
  A 7.52 7.52 0.0 0 0 252.49 49.37
  A 7.52 7.52 0.0 0 0 260.01 56.89
  A 7.52 7.52 0.0 0 0 267.53 49.37
  Z
  M 241.78 65.15
  A 8.69 8.69 0.0 0 0 233.09 56.46
  A 8.69 8.69 0.0 0 0 224.40 65.15
  A 8.69 8.69 0.0 0 0 233.09 73.84
  A 8.69 8.69 0.0 0 0 241.78 65.15
  Z
  M 278.12 92.02
  A 18.11 18.11 0.0 0 0 260.01 73.91
  A 18.11 18.11 0.0 0 0 241.90 92.02
  A 18.11 18.11 0.0 0 0 260.01 110.13
  A 18.11 18.11 0.0 0 0 278.12 92.02
  Z
  M 386.47 345.18
  C 398.85 254.86 322.78 176.67 231.99 187.86
  C 227.08 188.46 223.76 188.40 220.46 185.06
  C 214.68 179.20 215.86 169.00 223.69 165.52
  Q 225.99 164.49 230.46 164.49
  Q 260.11 164.50 289.76 164.51
  Q 298.35 164.51 302.04 163.03
  C 311.70 159.15 314.89 147.45 312.21 137.80
  C 309.42 127.73 301.99 124.74 292.04 124.64
  Q 260.89 124.32 229.75 124.61
  Q 203.80 124.85 187.43 142.93
  C 161.60 171.46 171.13 220.56 209.15 233.41
  A 2.77 2.72 -45.5 0 0 211.01 233.38
  C 263.60 213.14 320.73 238.27 341.00 290.59
  C 357.66 333.62 341.64 382.51 303.65 408.15
  C 239.87 451.19 152.79 408.19 148.78 331.25
  Q 146.83 294.07 170.00 264.45
  Q 173.48 260.00 177.26 255.61
  A 0.53 0.53 43.0 0 0 177.23 254.89
  L 150.13 227.78
  A 0.39 0.38 -44.5 0 0 149.58 227.78
  C 108.71 269.44 97.67 330.67 121.81 383.76
  C 159.80 467.30 266.28 489.82 336.75 433.35
  C 363.75 411.71 381.77 379.43 386.47 345.18
  Z
  M 166.54 284.00
  C 155.85 304.76 154.46 330.10 161.31 352.37
  C 171.01 383.89 197.90 407.96 230.19 414.49
  C 308.50 430.34 368.41 344.80 326.09 276.85
  C 323.69 272.41 319.06 269.94 314.22 269.18
  Q 298.31 266.69 282.31 268.54
  C 267.85 270.21 257.69 277.99 246.98 283.48
  Q 237.79 288.20 227.80 284.10
  C 212.65 277.89 196.87 267.76 179.81 274.09
  C 173.59 276.40 169.14 278.20 166.54 284.00
  Z"
/>
<circle fill="#99bed5" cx="260.01" cy="49.37" r="7.52"/>
<circle fill="#99bed5" cx="233.09" cy="65.15" r="8.69"/>
<circle fill="#99bed5" cx="260.01" cy="92.02" r="18.11"/>
<path fill="#eaebed" d="
  M 231.99 187.86
  C 322.78 176.67 398.85 254.86 386.47 345.18
  C 381.77 379.43 363.75 411.71 336.75 433.35
  C 266.28 489.82 159.80 467.30 121.81 383.76
  C 97.67 330.67 108.71 269.44 149.58 227.78
  A 0.39 0.38 -44.5 0 1 150.13 227.78
  L 177.23 254.89
  A 0.53 0.53 43.0 0 1 177.26 255.61
  Q 173.48 260.00 170.00 264.45
  Q 146.83 294.07 148.78 331.25
  C 152.79 408.19 239.87 451.19 303.65 408.15
  C 341.64 382.51 357.66 333.62 341.00 290.59
  C 320.73 238.27 263.60 213.14 211.01 233.38
  A 2.77 2.72 -45.5 0 1 209.15 233.41
  C 171.13 220.56 161.60 171.46 187.43 142.93
  Q 203.80 124.85 229.75 124.61
  Q 260.89 124.32 292.04 124.64
  C 301.99 124.74 309.42 127.73 312.21 137.80
  C 314.89 147.45 311.70 159.15 302.04 163.03
  Q 298.35 164.51 289.76 164.51
  Q 260.11 164.50 230.46 164.49
  Q 225.99 164.49 223.69 165.52
  C 215.86 169.00 214.68 179.20 220.46 185.06
  C 223.76 188.40 227.08 188.46 231.99 187.86
  Z"
/>
<path fill="#99bed5" d="
  M 326.09 276.85
  C 321.21 281.64 306.47 281.03 299.49 280.65
  C 286.73 279.95 277.48 281.43 266.18 284.66
  C 250.61 289.11 236.86 297.64 220.44 299.89
  C 203.11 302.27 180.90 293.26 166.54 284.00
  C 169.14 278.20 173.59 276.40 179.81 274.09
  C 196.87 267.76 212.65 277.89 227.80 284.10
  Q 237.79 288.20 246.98 283.48
  C 257.69 277.99 267.85 270.21 282.31 268.54
  Q 298.31 266.69 314.22 269.18
  C 319.06 269.94 323.69 272.41 326.09 276.85
  Z"
/>
<path fill="#02518e" d="
  M 326.09 276.85
  C 368.41 344.80 308.50 430.34 230.19 414.49
  C 197.90 407.96 171.01 383.89 161.31 352.37
  C 154.46 330.10 155.85 304.76 166.54 284.00
  C 180.90 293.26 203.11 302.27 220.44 299.89
  C 236.86 297.64 250.61 289.11 266.18 284.66
  C 277.48 281.43 286.73 279.95 299.49 280.65
  C 306.47 281.03 321.21 281.64 326.09 276.85
  Z
  M 176.17 305.38
  A 3.97 3.97 0.0 0 0 172.20 301.41
  A 3.97 3.97 0.0 0 0 168.23 305.38
  A 3.97 3.97 0.0 0 0 172.20 309.35
  A 3.97 3.97 0.0 0 0 176.17 305.38
  Z
  M 310.50 309.19
  A 5.33 5.33 0.0 0 0 305.17 303.86
  A 5.33 5.33 0.0 0 0 299.84 309.19
  A 5.33 5.33 0.0 0 0 305.17 314.52
  A 5.33 5.33 0.0 0 0 310.50 309.19
  Z
  M 263.7686 321.4325
  A 0.42 0.42 0.0 0 0 263.5635 320.8751
  L 257.3362 317.9976
  A 0.42 0.42 0.0 0 0 256.7787 318.2027
  L 233.3314 368.9475
  A 0.42 0.42 0.0 0 0 233.5365 369.5049
  L 239.7638 372.3824
  A 0.42 0.42 0.0 0 0 240.3213 372.1773
  L 263.7686 321.4325
  Z
  M 190.19 326.58
  L 191.91 328.19
  A 1.01 0.74 -27.1 0 0 192.77 328.33
  Q 193.79 328.05 194.79 328.39
  A 1.06 0.88 33.1 0 0 195.66 328.29
  Q 201.37 324.32 196.31 319.42
  A 1.40 1.33 -19.2 0 0 195.45 319.03
  Q 188.40 318.46 189.26 325.81
  A 0.38 0.31 -82.0 0 0 189.43 326.09
  L 189.59 326.18
  Q 189.99 326.40 190.19 326.58
  Z
  M 293.25 344.45
  L 271.39 356.88
  A 2.23 1.92 -18.5 0 0 270.25 358.79
  L 270.67 365.27
  A 0.34 0.32 -17.5 0 0 271.17 365.51
  L 302.95 346.88
  A 1.37 1.23 -8.3 0 0 303.55 346.16
  Q 304.24 344.15 303.63 341.97
  A 1.28 1.17 7.8 0 0 303.03 341.25
  L 271.17 324.50
  A 0.37 0.37 -71.0 0 0 270.64 324.76
  Q 270.08 328.11 270.52 331.67
  A 0.94 0.85 11.8 0 0 271.03 332.37
  L 293.26 343.94
  Q 293.72 344.18 293.25 344.45
  Z
  M 204.00 343.83
  L 226.18 332.39
  A 0.91 0.71 -17.1 0 0 226.68 331.67
  L 226.55 324.91
  A 0.35 0.33 -15.1 0 0 226.04 324.64
  L 194.46 341.27
  A 1.46 1.33 -4.4 0 0 193.81 341.96
  C 192.77 344.49 193.31 346.23 195.76 347.65
  Q 211.28 356.66 226.75 365.78
  Q 227.22 366.06 227.22 365.51
  L 227.22 358.35
  A 1.54 1.39 16.1 0 0 226.44 357.09
  L 203.99 344.32
  Q 203.54 344.07 204.00 343.83
  Z
  M 329.37 345.73
  A 3.54 3.54 0.0 0 0 325.83 342.19
  A 3.54 3.54 0.0 0 0 322.29 345.73
  A 3.54 3.54 0.0 0 0 325.83 349.27
  A 3.54 3.54 0.0 0 0 329.37 345.73
  Z
  M 186.68 374.18
  A 2.46 2.46 0.0 0 0 184.22 371.72
  A 2.46 2.46 0.0 0 0 181.76 374.18
  A 2.46 2.46 0.0 0 0 184.22 376.64
  A 2.46 2.46 0.0 0 0 186.68 374.18
  Z
  M 216.57 386.95
  A 1.08 0.74 -55.5 0 0 217.43 386.62
  L 219.28 384.79
  A 1.37 0.58 -36.4 0 0 219.74 384.01
  Q 220.12 377.66 213.77 377.78
  A 1.44 1.36 -65.0 0 0 212.88 378.13
  Q 207.67 382.82 213.29 387.07
  A 0.86 0.72 -37.4 0 0 214.12 387.11
  Q 215.14 386.63 216.57 386.95
  Z
  M 269.53 387.48
  A 2.49 2.49 0.0 0 0 267.04 384.99
  A 2.49 2.49 0.0 0 0 264.55 387.48
  A 2.49 2.49 0.0 0 0 267.04 389.97
  A 2.49 2.49 0.0 0 0 269.53 387.48
  Z
  M 298.32 393.24
  A 3.56 3.56 0.0 0 0 294.76 389.68
  A 3.56 3.56 0.0 0 0 291.20 393.24
  A 3.56 3.56 0.0 0 0 294.76 396.80
  A 3.56 3.56 0.0 0 0 298.32 393.24
  Z
  M 219.97 401.61
  A 1.68 1.68 0.0 0 0 218.29 399.93
  A 1.68 1.68 0.0 0 0 216.61 401.61
  A 1.68 1.68 0.0 0 0 218.29 403.29
  A 1.68 1.68 0.0 0 0 219.97 401.61
  Z
  M 275.15 406.35
  A 1.71 1.71 0.0 0 0 273.44 404.64
  A 1.71 1.71 0.0 0 0 271.73 406.35
  A 1.71 1.71 0.0 0 0 273.44 408.06
  A 1.71 1.71 0.0 0 0 275.15 406.35
  Z
  M 251.07 408.16
  A 1.71 1.71 0.0 0 0 249.36 406.45
  A 1.71 1.71 0.0 0 0 247.65 408.16
  A 1.71 1.71 0.0 0 0 249.36 409.87
  A 1.71 1.71 0.0 0 0 251.07 408.16
  Z"
/>
<path fill="#afd2e2" d="
  M 176.17 305.38
  A 3.97 3.97 0.0 0 1 172.20 309.35
  A 3.97 3.97 0.0 0 1 168.23 305.38
  A 3.97 3.97 0.0 0 1 172.20 301.41
  A 3.97 3.97 0.0 0 1 176.17 305.38
  Z
  M 174.11 305.34
  A 1.86 1.86 0.0 0 0 172.25 303.48
  A 1.86 1.86 0.0 0 0 170.39 305.34
  A 1.86 1.86 0.0 0 0 172.25 307.20
  A 1.86 1.86 0.0 0 0 174.11 305.34
  Z"
/>
<circle fill="#02518e" cx="172.25" cy="305.34" r="1.86"/>
<path fill="#a3c8dc" d="
  M 310.50 309.19
  A 5.33 5.33 0.0 0 1 305.17 314.52
  A 5.33 5.33 0.0 0 1 299.84 309.19
  A 5.33 5.33 0.0 0 1 305.17 303.86
  A 5.33 5.33 0.0 0 1 310.50 309.19
  Z
  M 307.36 309.16
  A 2.23 2.23 0.0 0 0 305.13 306.93
  A 2.23 2.23 0.0 0 0 302.90 309.16
  A 2.23 2.23 0.0 0 0 305.13 311.39
  A 2.23 2.23 0.0 0 0 307.36 309.16
  Z"
/>
<circle fill="#02518e" cx="305.13" cy="309.16" r="2.23"/>
<rect fill="#99bed5" x="-3.85" y="-28.37" transform="translate(248.55,345.19) rotate(24.8)" width="7.70" height="56.74" rx="0.42"/>
<path fill="#a3c8dc" d="
  M 189.59 326.18
  L 189.43 326.09
  A 0.38 0.31 -82.0 0 1 189.26 325.81
  Q 188.40 318.46 195.45 319.03
  A 1.40 1.33 -19.2 0 1 196.31 319.42
  Q 201.37 324.32 195.66 328.29
  A 1.06 0.88 33.1 0 1 194.79 328.39
  Q 193.79 328.05 192.77 328.33
  A 1.01 0.74 -27.1 0 1 191.91 328.19
  L 190.19 326.58
  Q 189.99 326.40 189.59 326.18
  Z
  M 195.90 323.59
  A 2.02 2.02 0.0 0 0 193.88 321.57
  A 2.02 2.02 0.0 0 0 191.86 323.59
  A 2.02 2.02 0.0 0 0 193.88 325.61
  A 2.02 2.02 0.0 0 0 195.90 323.59
  Z"
/>
<circle fill="#02518e" cx="193.88" cy="323.59" r="2.02"/>
<path fill="#99bed5" d="
  M 293.26 343.94
  L 271.03 332.37
  A 0.94 0.85 11.8 0 1 270.52 331.67
  Q 270.08 328.11 270.64 324.76
  A 0.37 0.37 -71.0 0 1 271.17 324.50
  L 303.03 341.25
  A 1.28 1.17 7.8 0 1 303.63 341.97
  Q 304.24 344.15 303.55 346.16
  A 1.37 1.23 -8.3 0 1 302.95 346.88
  L 271.17 365.51
  A 0.34 0.32 -17.5 0 1 270.67 365.27
  L 270.25 358.79
  A 2.23 1.92 -18.5 0 1 271.39 356.88
  L 293.25 344.45
  Q 293.72 344.18 293.26 343.94
  Z"
/>
<path fill="#99bed5" d="
  M 203.99 344.32
  L 226.44 357.09
  A 1.54 1.39 16.1 0 1 227.22 358.35
  L 227.22 365.51
  Q 227.22 366.06 226.75 365.78
  Q 211.28 356.66 195.76 347.65
  C 193.31 346.23 192.77 344.49 193.81 341.96
  A 1.46 1.33 -4.4 0 1 194.46 341.27
  L 226.04 324.64
  A 0.35 0.33 -15.1 0 1 226.55 324.91
  L 226.68 331.67
  A 0.91 0.71 -17.1 0 1 226.18 332.39
  L 204.00 343.83
  Q 203.54 344.07 203.99 344.32
  Z"
/>
<path fill="#a3c8dc" d="
  M 329.37 345.73
  A 3.54 3.54 0.0 0 1 325.83 349.27
  A 3.54 3.54 0.0 0 1 322.29 345.73
  A 3.54 3.54 0.0 0 1 325.83 342.19
  A 3.54 3.54 0.0 0 1 329.37 345.73
  Z
  M 327.34 345.75
  A 1.53 1.53 0.0 0 0 325.81 344.22
  A 1.53 1.53 0.0 0 0 324.28 345.75
  A 1.53 1.53 0.0 0 0 325.81 347.28
  A 1.53 1.53 0.0 0 0 327.34 345.75
  Z"
/>
<circle fill="#02518e" cx="325.81" cy="345.75" r="1.53"/>
<path fill="#afd2e2" d="
  M 186.68 374.18
  A 2.46 2.46 0.0 0 1 184.22 376.64
  A 2.46 2.46 0.0 0 1 181.76 374.18
  A 2.46 2.46 0.0 0 1 184.22 371.72
  A 2.46 2.46 0.0 0 1 186.68 374.18
  Z
  M 184.1124 375.1778
  A 1.02 0.87 93.8 0 0 185.0481 374.2177
  A 1.02 0.87 93.8 0 0 184.2476 373.1422
  A 1.02 0.87 93.8 0 0 183.3119 374.1023
  A 1.02 0.87 93.8 0 0 184.1124 375.1778
  Z"
/>
<ellipse fill="#02518e" cx="0.00" cy="0.00" transform="translate(184.18,374.16) rotate(93.8)" rx="1.02" ry="0.87"/>
<path fill="#a3c8dc" d="
  M 216.57 386.95
  Q 215.14 386.63 214.12 387.11
  A 0.86 0.72 -37.4 0 1 213.29 387.07
  Q 207.67 382.82 212.88 378.13
  A 1.44 1.36 -65.0 0 1 213.77 377.78
  Q 220.12 377.66 219.74 384.01
  A 1.37 0.58 -36.4 0 1 219.28 384.79
  L 217.43 386.62
  A 1.08 0.74 -55.5 0 1 216.57 386.95
  Z
  M 217.10 382.53
  A 1.97 1.97 0.0 0 0 215.13 380.56
  A 1.97 1.97 0.0 0 0 213.16 382.53
  A 1.97 1.97 0.0 0 0 215.13 384.50
  A 1.97 1.97 0.0 0 0 217.10 382.53
  Z"
/>
<circle fill="#02518e" cx="215.13" cy="382.53" r="1.97"/>
<path fill="#a3c8dc" d="
  M 269.53 387.48
  A 2.49 2.49 0.0 0 1 267.04 389.97
  A 2.49 2.49 0.0 0 1 264.55 387.48
  A 2.49 2.49 0.0 0 1 267.04 384.99
  A 2.49 2.49 0.0 0 1 269.53 387.48
  Z
  M 268.01 387.29
  A 1.00 1.00 0.0 0 0 267.01 386.29
  A 1.00 1.00 0.0 0 0 266.01 387.29
  A 1.00 1.00 0.0 0 0 267.01 388.29
  A 1.00 1.00 0.0 0 0 268.01 387.29
  Z"
/>
<circle fill="#02518e" cx="267.01" cy="387.29" r="1.00"/>
<path fill="#afd2e2" d="
  M 298.32 393.24
  A 3.56 3.56 0.0 0 1 294.76 396.80
  A 3.56 3.56 0.0 0 1 291.20 393.24
  A 3.56 3.56 0.0 0 1 294.76 389.68
  A 3.56 3.56 0.0 0 1 298.32 393.24
  Z
  M 296.41 393.15
  A 1.62 1.62 0.0 0 0 294.79 391.53
  A 1.62 1.62 0.0 0 0 293.17 393.15
  A 1.62 1.62 0.0 0 0 294.79 394.77
  A 1.62 1.62 0.0 0 0 296.41 393.15
  Z"
/>
<circle fill="#02518e" cx="294.79" cy="393.15" r="1.62"/>
<circle fill="#81acc7" cx="218.29" cy="401.61" r="1.68"/>
<circle fill="#81acc7" cx="273.44" cy="406.35" r="1.71"/>
<circle fill="#81acc7" cx="249.36" cy="408.16" r="1.71"/>
</svg>
