<?xml version="1.0" encoding="UTF-8" standalone="no"?>
<!DOCTYPE svg PUBLIC "-//W3C//DTD SVG 1.1//EN" "http://www.w3.org/Graphics/SVG/1.1/DTD/svg11.dtd">
<svg xmlns="http://www.w3.org/2000/svg" version="1.1" viewBox="0 0 1448 1448">
<g stroke-width="2.00" fill="none" stroke-linecap="butt">
<path stroke="#4c88b0" vector-effect="non-scaling-stroke" d="
  M 970.75 805.04
  Q 963.25 809.40 955.00 810.27
  C 937.36 812.13 918.59 813.89 900.26 813.14
  C 873.06 812.03 844.84 810.30 818.26 816.28
  C 795.73 821.35 768.52 827.70 747.30 837.29
  C 712.90 852.85 680.17 865.21 645.01 872.75
  C 622.97 877.48 603.40 876.91 581.26 872.67
  Q 554.33 867.50 528.42 858.65
  C 503.52 850.15 482.45 837.34 458.25 823.46"
/>
<path stroke="#4e8ab2" vector-effect="non-scaling-stroke" d="
  M 463.81 890.39
  Q 467.37 893.77 463.19 896.65
  A 0.71 0.63 -28.3 0 0 462.91 897.41
  L 463.73 899.82
  A 0.70 0.61 -11.5 0 0 464.43 900.22
  Q 470.16 899.68 469.63 905.27
  A 0.83 0.79 -71.8 0 0 469.99 906.04
  Q 473.13 908.07 474.98 905.29
  A 1.37 1.07 -74.2 0 1 475.72 904.75
  Q 478.69 904.09 480.12 906.45
  A 0.99 0.82 72.1 0 0 480.86 906.92
  Q 482.37 906.97 483.42 905.83
  A 1.30 0.99 69.9 0 0 483.69 904.96
  Q 483.40 899.87 488.54 900.22
  A 1.04 0.89 19.5 0 0 489.37 899.90
  Q 490.31 898.74 490.34 897.21
  A 0.94 0.78 18.9 0 0 489.89 896.47
  Q 487.20 894.80 488.30 891.66
  A 1.70 1.21 -15.2 0 1 488.90 890.93
  Q 491.49 889.16 489.32 886.55
  A 0.90 0.82 -22.6 0 0 488.51 886.26
  Q 485.42 886.72 483.80 884.08
  A 1.30 1.09 -58.0 0 1 483.67 883.16
  Q 484.43 879.67 480.64 879.55
  A 0.93 0.79 -71.1 0 0 479.90 879.99
  Q 478.36 882.43 475.28 881.76
  A 1.32 1.04 75.1 0 1 474.55 881.21
  Q 472.64 878.18 469.83 880.68
  A 0.92 0.79 65.3 0 0 469.59 881.51
  C 471.17 888.79 461.76 883.57 463.30 889.58
  A 1.85 1.33 22.1 0 0 463.81 890.39"
/>
<path stroke="#4c88b0" vector-effect="non-scaling-stroke" d="
  M 897.25 894.79
  L 893.46 895.00"
/>
<path stroke="#4e8ab2" vector-effect="non-scaling-stroke" d="
  M 893.46 895.00
  C 892.16 894.10 892.07 895.20 891.58 895.76
  Q 888.69 899.04 892.17 901.32
  A 1.28 1.05 14.9 0 1 892.70 902.06
  Q 893.63 906.47 889.84 908.38
  A 0.92 0.84 -13.3 0 0 889.35 909.10
  Q 889.06 914.11 893.96 913.56
  A 1.45 1.16 -26.2 0 1 894.87 913.76
  Q 898.39 916.13 897.06 920.27
  A 0.71 0.53 -68.6 0 0 897.28 921.06
  L 901.09 923.06
  A 0.80 0.59 -52.0 0 0 901.91 922.83
  Q 907.13 917.52 911.06 923.48
  A 0.96 0.86 71.0 0 0 911.83 923.91
  Q 916.14 923.81 915.74 919.53
  A 1.83 1.24 65.6 0 1 915.90 918.59
  Q 918.01 914.67 922.22 916.10
  A 0.91 0.79 31.6 0 0 923.07 915.96
  Q 924.62 914.58 925.15 912.59
  A 0.89 0.82 30.1 0 0 924.89 911.76
  Q 919.49 906.72 925.45 902.57
  A 1.01 0.93 -18.8 0 0 925.88 901.78
  Q 925.88 899.90 924.95 898.22
  A 0.90 0.83 -13.7 0 0 924.19 897.80
  Q 916.83 897.80 918.15 890.49
  A 0.91 0.84 -65.5 0 0 917.87 889.65
  Q 914.08 886.40 911.67 890.38
  A 0.98 0.83 -73.3 0 1 910.94 890.86
  Q 909.95 890.90 909.25 890.46"
/>
<path stroke="#4c88b0" vector-effect="non-scaling-stroke" d="
  M 909.25 890.46
  L 906.04 889.25"
/>
<path stroke="#4e8ab2" vector-effect="non-scaling-stroke" d="
  M 906.04 889.25
  L 904.38 887.29
  A 0.92 0.68 -24.3 0 0 903.53 887.11
  L 900.25 887.97
  A 0.80 0.60 -8.4 0 0 899.66 888.57
  L 899.51 892.29
  A 1.26 0.83 78.3 0 1 899.18 893.12
  L 897.25 894.79"
/>
<path stroke="#99c1d6" vector-effect="non-scaling-stroke" d="
  M 906.04 889.25
  Q 906.73 891.32 909.25 890.46"
/>
<path stroke="#99c1d6" vector-effect="non-scaling-stroke" d="
  M 893.46 895.00
  Q 895.60 896.42 897.25 894.79"
/>
<path stroke="#4c88b0" vector-effect="non-scaling-stroke" d="
  M 675.31 1100.39
  L 696.29 1110.43
  A 0.51 0.51 -64.7 0 0 696.97 1110.18
  L 773.06 945.45
  A 0.53 0.53 -64.2 0 0 772.82 944.76
  L 752.29 934.13
  A 0.60 0.60 -64.1 0 0 751.48 934.41
  L 675.14 1099.91
  A 0.37 0.36 25.8 0 0 675.31 1100.39"
/>
<path stroke="#4e8ab2" vector-effect="non-scaling-stroke" d="
  M 533.32 950.80
  Q 534.32 954.67 531.02 956.58
  A 0.80 0.72 -19.2 0 0 530.62 957.31
  Q 530.81 959.15 531.97 960.57
  A 0.94 0.83 -20.5 0 0 532.78 960.88
  Q 539.09 960.11 538.52 966.53
  A 1.00 0.87 -71.5 0 0 538.86 967.36
  Q 540.46 968.61 542.66 968.69
  A 0.91 0.79 -70.9 0 0 543.41 968.26
  Q 545.37 965.11 549.10 966.28
  A 1.32 1.06 79.2 0 1 549.80 966.88
  C 551.76 970.36 556.35 967.83 555.18 964.97
  A 1.56 1.10 50.5 0 1 555.11 964.04
  Q 556.37 960.15 560.46 960.85
  A 1.18 0.99 27.2 0 0 561.34 960.65
  Q 562.94 959.32 562.85 957.29
  A 1.21 1.05 21.9 0 0 562.43 956.48
  Q 557.60 952.36 562.61 948.45
  A 0.79 0.59 -32.1 0 0 562.92 947.66
  L 561.76 944.68
  A 0.78 0.59 -10.6 0 0 561.01 944.31
  Q 554.28 944.88 555.10 938.24
  A 0.70 0.61 -77.3 0 0 554.72 937.53
  L 551.82 936.39
  A 0.76 0.65 -58.1 0 0 551.03 936.64
  Q 546.65 941.79 542.56 936.67
  A 0.90 0.83 65.7 0 0 541.76 936.33
  Q 537.58 936.93 538.59 940.89
  A 1.04 0.71 65.1 0 1 538.44 941.79
  L 536.05 944.20
  A 1.05 0.69 23.4 0 1 535.15 944.36
  Q 531.12 943.40 530.68 947.45
  A 1.16 0.89 -69.7 0 0 530.96 948.34
  L 532.78 950.02
  A 1.72 0.73 32.4 0 1 533.32 950.80"
/>
<path stroke="#4c88b0" vector-effect="non-scaling-stroke" d="
  M 577.08 1018.67
  L 653.03 979.71
  A 0.84 0.83 -13.4 0 0 653.48 978.99
  L 653.58 955.74
  A 0.50 0.50 76.0 0 0 652.85 955.30
  L 546.74 1011.31
  A 0.85 0.83 -14.3 0 0 546.29 1012.05
  L 546.28 1025.49
  A 0.88 0.84 16.6 0 0 546.71 1026.24
  L 653.67 1088.91
  Q 654.30 1089.28 654.29 1088.55
  L 654.23 1063.29
  A 0.88 0.87 -75.3 0 0 653.79 1062.53
  L 577.07 1019.41
  Q 576.39 1019.03 577.08 1018.67"
/>
<path stroke="#4c88b0" vector-effect="non-scaling-stroke" d="
  M 872.70 1018.82
  Q 872.96 1018.95 872.71 1019.09
  L 795.84 1062.49
  A 1.72 1.71 74.0 0 0 794.96 1064.09
  Q 795.59 1076.13 794.96 1088.15
  Q 794.89 1089.46 796.02 1088.80
  L 902.79 1026.24
  A 0.90 0.87 -15.7 0 0 903.23 1025.48
  L 903.21 1012.05
  A 0.85 0.83 14.3 0 0 902.76 1011.31
  L 795.97 955.27
  A 0.44 0.44 -76.0 0 0 795.33 955.66
  L 795.19 978.52
  A 1.14 1.10 -76.6 0 0 795.79 979.54
  L 872.70 1018.82"
/>
<path stroke="#4e8ab2" vector-effect="non-scaling-stroke" d="
  M 964.22 1029.38
  C 966.70 1028.58 968.51 1031.51 967.73 1033.66
  A 0.80 0.71 -60.2 0 0 967.90 1034.48
  Q 970.25 1036.57 972.30 1034.54
  A 1.96 1.14 -61.7 0 1 973.13 1034.03
  Q 975.62 1033.42 976.48 1035.63
  A 0.88 0.71 79.1 0 0 977.13 1036.18
  Q 978.39 1036.28 979.51 1035.72
  A 0.85 0.77 77.2 0 0 979.93 1034.97
  Q 979.92 1030.30 984.53 1030.93
  A 1.11 0.96 24.5 0 0 985.39 1030.68
  Q 987.51 1028.64 985.28 1027.01
  A 1.36 1.01 18.6 0 1 984.75 1026.25
  Q 984.20 1023.57 986.37 1022.31
  A 1.14 0.87 -15.7 0 0 986.92 1021.58
  Q 987.11 1020.10 986.07 1019.09
  A 1.27 0.89 -17.5 0 0 985.19 1018.81
  Q 982.73 1018.91 981.70 1016.65
  A 1.68 1.15 -58.6 0 1 981.65 1015.69
  Q 982.28 1013.07 979.73 1012.39
  A 0.92 0.83 -59.3 0 0 978.89 1012.65
  Q 975.79 1015.83 972.98 1012.17
  A 0.93 0.67 60.4 0 0 972.18 1011.80
  L 970.00 1012.32
  A 0.74 0.56 84.2 0 0 969.57 1013.02
  Q 969.70 1017.77 964.90 1017.03
  A 0.81 0.60 15.0 0 0 964.11 1017.34
  L 963.13 1019.35
  A 0.69 0.53 31.8 0 0 963.41 1020.10
  Q 965.60 1021.62 964.65 1024.34
  A 1.42 1.09 -10.2 0 1 964.02 1025.03
  Q 961.32 1026.51 963.43 1029.17
  A 0.76 0.67 -26.7 0 0 964.22 1029.38"
/>
<path stroke="#4e8ab2" vector-effect="non-scaling-stroke" d="
  M 510.93 1121.25
  Q 511.37 1122.15 511.32 1123.18
  A 0.94 0.75 -75.8 0 0 511.68 1123.98
  Q 512.56 1124.52 513.60 1124.44
  A 1.31 0.80 -63.7 0 0 514.38 1123.95
  C 516.39 1121.41 517.51 1125.64 519.67 1124.12
  A 0.95 0.72 72.2 0 0 519.96 1123.30
  Q 519.76 1121.79 520.84 1120.76
  A 1.13 0.87 23.6 0 1 521.72 1120.54
  Q 523.70 1120.88 523.98 1119.01
  A 1.05 0.81 30.4 0 0 523.65 1118.19
  Q 521.66 1116.28 523.46 1114.44
  A 1.60 0.77 -34.4 0 0 523.94 1113.60
  Q 524.03 1112.80 523.39 1112.22
  A 1.47 0.82 -12.6 0 0 522.49 1111.95
  C 518.36 1111.91 521.30 1107.86 518.40 1107.82
  A 1.28 0.76 -59.4 0 0 517.60 1108.26
  Q 516.69 1109.27 515.26 1109.26
  A 1.13 0.83 66.3 0 1 514.48 1108.81
  Q 513.26 1107.15 511.62 1108.43
  A 1.01 0.82 72.2 0 0 511.30 1109.25
  Q 511.54 1112.07 508.75 1111.78
  A 0.92 0.72 17.0 0 0 507.95 1112.09
  Q 507.53 1112.73 507.47 1113.53
  A 1.24 0.91 29.7 0 0 507.85 1114.38
  Q 509.72 1116.23 507.76 1118.09
  A 1.49 0.77 -32.9 0 0 507.29 1118.91
  Q 507.25 1119.59 507.72 1120.13
  A 1.29 0.41 2.3 0 0 508.58 1120.44
  L 510.22 1120.66
  A 1.07 0.77 75.5 0 1 510.93 1121.25"
/>
<path stroke="#4e8ab2" vector-effect="non-scaling-stroke" d="
  M 631.47 1147.35
  C 629.86 1145.35 628.33 1145.23 629.09 1142.14
  C 629.70 1139.68 633.43 1139.13 630.26 1135.59
  A 0.99 0.86 -21.9 0 0 629.42 1135.30
  Q 625.59 1135.83 624.05 1132.52
  A 1.23 0.88 -52.1 0 1 624.09 1131.62
  C 625.62 1128.12 619.92 1126.20 617.89 1130.18
  A 0.76 0.59 14.1 0 1 617.19 1130.49
  L 614.21 1130.18
  A 0.99 0.78 -6.8 0 1 613.49 1129.74
  Q 611.51 1125.92 608.11 1128.98
  A 0.99 0.87 66.4 0 0 607.84 1129.82
  Q 608.38 1133.34 605.38 1135.26
  A 1.30 1.09 32.0 0 1 604.46 1135.39
  Q 600.27 1134.39 600.33 1138.66
  A 1.27 1.12 24.2 0 0 600.71 1139.49
  Q 605.04 1143.68 600.47 1147.42
  A 0.95 0.87 -24.6 0 0 600.13 1148.23
  Q 600.60 1152.13 604.19 1151.33
  A 1.64 1.18 -31.5 0 1 605.14 1151.40
  Q 608.57 1152.96 607.78 1156.79
  A 0.83 0.74 -68.0 0 0 608.07 1157.59
  Q 609.58 1158.71 611.51 1159.02
  A 0.90 0.85 -64.3 0 0 612.32 1158.71
  Q 616.42 1153.87 620.28 1158.86
  A 0.63 0.62 -31.0 0 0 621.03 1159.04
  L 623.52 1157.92
  A 0.66 0.63 -16.2 0 0 623.91 1157.24
  Q 623.02 1150.59 629.75 1151.39
  A 0.70 0.63 13.4 0 0 630.46 1151.00
  L 631.60 1148.23
  A 0.86 0.86 -53.5 0 0 631.47 1147.35"
/>
<path stroke="#4e8ab2" vector-effect="non-scaling-stroke" d="
  M 779.51 1164.31
  Q 780.32 1169.40 783.86 1165.98
  A 0.66 0.59 -49.2 0 1 784.63 1165.88
  L 786.63 1167.20
  A 0.82 0.52 37.8 0 0 787.48 1167.28
  L 788.22 1166.61
  A 1.23 0.53 80.7 0 0 788.45 1165.70
  C 788.24 1162.05 791.98 1164.61 792.51 1161.94
  A 0.97 0.76 29.4 0 0 792.17 1161.12
  Q 790.01 1159.27 791.99 1157.19
  C 793.93 1155.14 789.93 1154.74 789.01 1154.12
  A 1.11 0.98 -77.3 0 1 788.57 1153.32
  Q 788.21 1149.11 785.10 1151.94
  A 1.22 0.93 -58.2 0 1 784.24 1152.27
  Q 783.02 1152.13 782.24 1151.18
  A 1.15 0.71 62.0 0 0 781.47 1150.73
  Q 780.82 1150.74 780.33 1151.21
  A 1.25 0.78 76.0 0 0 780.05 1152.08
  Q 780.14 1154.89 777.30 1154.81
  A 1.14 0.88 16.3 0 0 776.45 1155.14
  Q 775.27 1156.57 776.75 1157.85
  A 1.43 0.86 28.1 0 1 777.23 1158.65
  Q 777.35 1160.01 776.26 1161.05
  Q 774.48 1162.74 776.58 1163.18
  L 778.95 1163.67
  A 0.80 0.70 89.8 0 1 779.51 1164.31"
/>
<path stroke="#4e8ab2" vector-effect="non-scaling-stroke" d="
  M 864.77 1171.90
  Q 861.87 1171.40 862.00 1174.50
  A 1.14 1.00 20.2 0 0 862.43 1175.29
  Q 865.75 1177.88 862.59 1180.69
  A 1.68 1.07 -25.8 0 0 862.08 1181.51
  Q 861.84 1182.80 862.71 1183.87
  A 1.05 0.85 -18.1 0 0 863.55 1184.19
  Q 868.28 1183.88 867.84 1188.53
  A 0.88 0.78 -72.4 0 0 868.19 1189.32
  Q 869.24 1190.02 870.55 1190.25
  A 0.95 0.83 -62.1 0 0 871.36 1189.94
  C 872.84 1188.26 875.68 1187.04 876.81 1189.49
  A 1.10 0.77 77.3 0 0 877.47 1190.09
  Q 879.24 1190.43 880.31 1188.93
  A 1.28 0.98 62.0 0 0 880.46 1188.02
  C 879.31 1182.45 886.00 1186.32 886.23 1181.80
  A 1.14 0.90 25.6 0 0 885.83 1180.98
  Q 882.44 1178.01 885.91 1175.06
  A 1.00 0.86 -26.3 0 0 886.26 1174.24
  Q 885.86 1171.26 882.75 1171.71
  A 1.50 1.03 -24.8 0 1 881.82 1171.55
  C 879.08 1169.73 881.72 1166.25 877.97 1165.96
  A 1.12 0.97 -64.7 0 0 877.13 1166.33
  Q 873.99 1169.87 871.01 1166.15
  A 0.77 0.56 55.8 0 0 870.21 1165.86
  L 868.06 1166.92
  A 0.81 0.55 74.3 0 0 867.79 1167.73
  Q 868.35 1170.68 865.72 1171.82
  A 1.89 1.20 27.6 0 1 864.77 1171.90"
/>
<path stroke="#4e8ab2" vector-effect="non-scaling-stroke" d="
  M 630.98 1205.07
  A 4.91 4.91 0.0 0 0 626.07 1200.16
  A 4.91 4.91 0.0 0 0 621.16 1205.07
  A 4.91 4.91 0.0 0 0 626.07 1209.98
  A 4.91 4.91 0.0 0 0 630.98 1205.07"
/>
<path stroke="#4e8ab2" vector-effect="non-scaling-stroke" d="
  M 809.56 1220.63
  A 4.85 4.85 0.0 0 0 804.71 1215.78
  A 4.85 4.85 0.0 0 0 799.86 1220.63
  A 4.85 4.85 0.0 0 0 804.71 1225.48
  A 4.85 4.85 0.0 0 0 809.56 1220.63"
/>
<path stroke="#4e8ab2" vector-effect="non-scaling-stroke" d="
  M 731.80 1226.21
  A 4.86 4.86 0.0 0 0 726.94 1221.35
  A 4.86 4.86 0.0 0 0 722.08 1226.21
  A 4.86 4.86 0.0 0 0 726.94 1231.07
  A 4.86 4.86 0.0 0 0 731.80 1226.21"
/>
<path stroke="#4e8ab2" vector-effect="non-scaling-stroke" d="
  M 482.27 893.26
  A 5.62 5.62 0.0 0 0 476.65 887.64
  A 5.62 5.62 0.0 0 0 471.03 893.26
  A 5.62 5.62 0.0 0 0 476.65 898.88
  A 5.62 5.62 0.0 0 0 482.27 893.26"
/>
<path stroke="#4e8ab2" vector-effect="non-scaling-stroke" d="
  M 915.02 905.51
  A 7.36 7.36 0.0 0 0 907.66 898.15
  A 7.36 7.36 0.0 0 0 900.30 905.51
  A 7.36 7.36 0.0 0 0 907.66 912.87
  A 7.36 7.36 0.0 0 0 915.02 905.51"
/>
<path stroke="#4e8ab2" vector-effect="non-scaling-stroke" d="
  M 553.42 952.56
  A 6.63 6.63 0.0 0 0 546.79 945.93
  A 6.63 6.63 0.0 0 0 540.16 952.56
  A 6.63 6.63 0.0 0 0 546.79 959.19
  A 6.63 6.63 0.0 0 0 553.42 952.56"
/>
<path stroke="#4e8ab2" vector-effect="non-scaling-stroke" d="
  M 979.61 1024.01
  A 4.88 4.88 0.0 0 0 974.73 1019.13
  A 4.88 4.88 0.0 0 0 969.85 1024.01
  A 4.88 4.88 0.0 0 0 974.73 1028.89
  A 4.88 4.88 0.0 0 0 979.61 1024.01"
/>
<path stroke="#4e8ab2" vector-effect="non-scaling-stroke" d="
  M 519.06 1116.22
  A 3.40 3.40 0.0 0 0 515.66 1112.82
  A 3.40 3.40 0.0 0 0 512.26 1116.22
  A 3.40 3.40 0.0 0 0 515.66 1119.62
  A 3.40 3.40 0.0 0 0 519.06 1116.22"
/>
<path stroke="#4e8ab2" vector-effect="non-scaling-stroke" d="
  M 622.21 1143.37
  A 6.38 6.38 0.0 0 0 615.83 1136.99
  A 6.38 6.38 0.0 0 0 609.45 1143.37
  A 6.38 6.38 0.0 0 0 615.83 1149.75
  A 6.38 6.38 0.0 0 0 622.21 1143.37"
/>
<path stroke="#4e8ab2" vector-effect="non-scaling-stroke" d="
  M 787.58 1159.11
  A 3.40 3.40 0.0 0 0 784.18 1155.71
  A 3.40 3.40 0.0 0 0 780.78 1159.11
  A 3.40 3.40 0.0 0 0 784.18 1162.51
  A 3.40 3.40 0.0 0 0 787.58 1159.11"
/>
<path stroke="#4e8ab2" vector-effect="non-scaling-stroke" d="
  M 879.07 1178.06
  A 4.95 4.95 0.0 0 0 874.12 1173.11
  A 4.95 4.95 0.0 0 0 869.17 1178.06
  A 4.95 4.95 0.0 0 0 874.12 1183.01
  A 4.95 4.95 0.0 0 0 879.07 1178.06"
/>
<path stroke="#4e8ab2" vector-effect="non-scaling-stroke" d="
  M 628.28 1205.06
  A 2.22 2.22 0.0 0 0 626.06 1202.84
  A 2.22 2.22 0.0 0 0 623.84 1205.06
  A 2.22 2.22 0.0 0 0 626.06 1207.28
  A 2.22 2.22 0.0 0 0 628.28 1205.06"
/>
<path stroke="#4e8ab2" vector-effect="non-scaling-stroke" d="
  M 806.99 1220.75
  A 2.25 2.25 0.0 0 0 804.74 1218.50
  A 2.25 2.25 0.0 0 0 802.49 1220.75
  A 2.25 2.25 0.0 0 0 804.74 1223.00
  A 2.25 2.25 0.0 0 0 806.99 1220.75"
/>
<path stroke="#4e8ab2" vector-effect="non-scaling-stroke" d="
  M 729.23 1226.29
  A 2.27 2.27 0.0 0 0 726.96 1224.02
  A 2.27 2.27 0.0 0 0 724.69 1226.29
  A 2.27 2.27 0.0 0 0 726.96 1228.56
  A 2.27 2.27 0.0 0 0 729.23 1226.29"
/>
</g>
<circle fill="#97bed3" cx="761.33" cy="63.01" r="24.43"/>
<circle fill="#97bed3" cx="674.13" cy="114.14" r="28.20"/>
<circle fill="#97bed3" cx="761.32" cy="201.34" r="58.74"/>
<path fill="#b2b8c2" d="
  M 680.50 1407.47
  C 527.12 1393.37 391.65 1300.86 321.75 1164.28
  C 232.36 989.65 266.90 779.63 403.94 641.31
  A 0.52 0.52 47.8 0 1 404.67 641.30
  L 493.90 730.59
  A 0.49 0.49 44.8 0 1 493.90 731.29
  C 343.18 883.78 378.27 1136.38 565.32 1241.41
  C 653.36 1290.84 762.01 1295.41 854.20 1254.23
  C 1031.16 1175.18 1098.13 959.57 999.85 793.92
  C 918.52 656.86 748.25 600.50 600.47 660.32
  A 1.42 1.40 -47.0 0 1 599.52 660.36
  Q 543.76 643.28 511.30 594.93
  C 499.62 577.53 489.09 555.39 483.69 533.22
  C 457.07 423.89 534.31 317.18 646.33 307.86
  Q 653.27 307.28 666.31 307.27
  Q 771.28 307.23 876.25 307.26
  C 905.56 307.26 929.05 330.03 932.21 358.92
  C 932.96 365.79 933.02 376.26 932.27 383.81
  C 929.57 411.05 908.54 433.46 881.00 435.75
  Q 878.43 435.96 866.81 436.02
  Q 764.28 436.51 661.76 435.99
  C 644.92 435.91 631.04 443.77 624.33 459.07
  C 614.32 481.90 627.29 508.39 652.05 513.48
  Q 655.26 514.14 659.47 513.57
  Q 727.83 504.30 793.93 514.37
  C 1010.04 547.31 1173.49 734.15 1175.58 953.29
  C 1177.16 1119.35 1089.07 1272.59 943.56 1353.20
  C 862.87 1397.90 771.75 1415.86 680.50 1407.47
  Z"
/>
<path fill="#97bed3" d="
  M 970.75 805.04
  Q 963.25 809.40 955.00 810.27
  C 937.36 812.13 918.59 813.89 900.26 813.14
  C 873.06 812.03 844.84 810.30 818.26 816.28
  C 795.73 821.35 768.52 827.70 747.30 837.29
  C 712.90 852.85 680.17 865.21 645.01 872.75
  C 622.97 877.48 603.40 876.91 581.26 872.67
  Q 554.33 867.50 528.42 858.65
  C 503.52 850.15 482.45 837.34 458.25 823.46
  C 467.02 802.90 490.32 794.72 510.60 789.02
  C 528.34 784.05 545.03 783.42 562.79 787.62
  C 590.25 794.10 615.20 805.60 640.39 817.98
  Q 658.70 826.99 676.31 829.42
  C 696.05 832.15 713.58 826.08 730.40 816.37
  Q 751.20 804.35 772.19 792.68
  C 787.67 784.08 803.22 779.09 821.02 776.08
  Q 874.86 766.98 928.48 773.97
  C 945.08 776.14 960.22 781.20 971.27 793.76
  Q 973.75 796.58 974.61 801.24
  A 0.99 0.71 69.7 0 1 974.37 802.11
  L 970.75 805.04
  Z"
/>
<path fill="#01518c" d="
  M 458.25 823.46
  C 482.45 837.34 503.52 850.15 528.42 858.65
  Q 554.33 867.50 581.26 872.67
  C 603.40 876.91 622.97 877.48 645.01 872.75
  C 680.17 865.21 712.90 852.85 747.30 837.29
  C 768.52 827.70 795.73 821.35 818.26 816.28
  C 844.84 810.30 873.06 812.03 900.26 813.14
  C 918.59 813.89 937.36 812.13 955.00 810.27
  Q 963.25 809.40 970.75 805.04
  Q 973.24 804.42 975.08 802.52
  A 1.10 1.10 51.5 0 1 976.81 802.72
  Q 1028.51 888.77 1018.44 988.57
  C 1005.31 1118.81 903.34 1226.87 774.42 1248.58
  C 648.48 1269.80 521.52 1208.56 462.20 1095.20
  C 418.54 1011.77 415.33 908.39 458.25 823.46
  Z
  M 463.81 890.39
  Q 467.37 893.77 463.19 896.65
  A 0.71 0.63 -28.3 0 0 462.91 897.41
  L 463.73 899.82
  A 0.70 0.61 -11.5 0 0 464.43 900.22
  Q 470.16 899.68 469.63 905.27
  A 0.83 0.79 -71.8 0 0 469.99 906.04
  Q 473.13 908.07 474.98 905.29
  A 1.37 1.07 -74.2 0 1 475.72 904.75
  Q 478.69 904.09 480.12 906.45
  A 0.99 0.82 72.1 0 0 480.86 906.92
  Q 482.37 906.97 483.42 905.83
  A 1.30 0.99 69.9 0 0 483.69 904.96
  Q 483.40 899.87 488.54 900.22
  A 1.04 0.89 19.5 0 0 489.37 899.90
  Q 490.31 898.74 490.34 897.21
  A 0.94 0.78 18.9 0 0 489.89 896.47
  Q 487.20 894.80 488.30 891.66
  A 1.70 1.21 -15.2 0 1 488.90 890.93
  Q 491.49 889.16 489.32 886.55
  A 0.90 0.82 -22.6 0 0 488.51 886.26
  Q 485.42 886.72 483.80 884.08
  A 1.30 1.09 -58.0 0 1 483.67 883.16
  Q 484.43 879.67 480.64 879.55
  A 0.93 0.79 -71.1 0 0 479.90 879.99
  Q 478.36 882.43 475.28 881.76
  A 1.32 1.04 75.1 0 1 474.55 881.21
  Q 472.64 878.18 469.83 880.68
  A 0.92 0.79 65.3 0 0 469.59 881.51
  C 471.17 888.79 461.76 883.57 463.30 889.58
  A 1.85 1.33 22.1 0 0 463.81 890.39
  Z
  M 897.25 894.79
  L 893.46 895.00
  C 892.16 894.10 892.07 895.20 891.58 895.76
  Q 888.69 899.04 892.17 901.32
  A 1.28 1.05 14.9 0 1 892.70 902.06
  Q 893.63 906.47 889.84 908.38
  A 0.92 0.84 -13.3 0 0 889.35 909.10
  Q 889.06 914.11 893.96 913.56
  A 1.45 1.16 -26.2 0 1 894.87 913.76
  Q 898.39 916.13 897.06 920.27
  A 0.71 0.53 -68.6 0 0 897.28 921.06
  L 901.09 923.06
  A 0.80 0.59 -52.0 0 0 901.91 922.83
  Q 907.13 917.52 911.06 923.48
  A 0.96 0.86 71.0 0 0 911.83 923.91
  Q 916.14 923.81 915.74 919.53
  A 1.83 1.24 65.6 0 1 915.90 918.59
  Q 918.01 914.67 922.22 916.10
  A 0.91 0.79 31.6 0 0 923.07 915.96
  Q 924.62 914.58 925.15 912.59
  A 0.89 0.82 30.1 0 0 924.89 911.76
  Q 919.49 906.72 925.45 902.57
  A 1.01 0.93 -18.8 0 0 925.88 901.78
  Q 925.88 899.90 924.95 898.22
  A 0.90 0.83 -13.7 0 0 924.19 897.80
  Q 916.83 897.80 918.15 890.49
  A 0.91 0.84 -65.5 0 0 917.87 889.65
  Q 914.08 886.40 911.67 890.38
  A 0.98 0.83 -73.3 0 1 910.94 890.86
  Q 909.95 890.90 909.25 890.46
  L 906.04 889.25
  L 904.38 887.29
  A 0.92 0.68 -24.3 0 0 903.53 887.11
  L 900.25 887.97
  A 0.80 0.60 -8.4 0 0 899.66 888.57
  L 899.51 892.29
  A 1.26 0.83 78.3 0 1 899.18 893.12
  L 897.25 894.79
  Z
  M 675.31 1100.39
  L 696.29 1110.43
  A 0.51 0.51 -64.7 0 0 696.97 1110.18
  L 773.06 945.45
  A 0.53 0.53 -64.2 0 0 772.82 944.76
  L 752.29 934.13
  A 0.60 0.60 -64.1 0 0 751.48 934.41
  L 675.14 1099.91
  A 0.37 0.36 25.8 0 0 675.31 1100.39
  Z
  M 533.32 950.80
  Q 534.32 954.67 531.02 956.58
  A 0.80 0.72 -19.2 0 0 530.62 957.31
  Q 530.81 959.15 531.97 960.57
  A 0.94 0.83 -20.5 0 0 532.78 960.88
  Q 539.09 960.11 538.52 966.53
  A 1.00 0.87 -71.5 0 0 538.86 967.36
  Q 540.46 968.61 542.66 968.69
  A 0.91 0.79 -70.9 0 0 543.41 968.26
  Q 545.37 965.11 549.10 966.28
  A 1.32 1.06 79.2 0 1 549.80 966.88
  C 551.76 970.36 556.35 967.83 555.18 964.97
  A 1.56 1.10 50.5 0 1 555.11 964.04
  Q 556.37 960.15 560.46 960.85
  A 1.18 0.99 27.2 0 0 561.34 960.65
  Q 562.94 959.32 562.85 957.29
  A 1.21 1.05 21.9 0 0 562.43 956.48
  Q 557.60 952.36 562.61 948.45
  A 0.79 0.59 -32.1 0 0 562.92 947.66
  L 561.76 944.68
  A 0.78 0.59 -10.6 0 0 561.01 944.31
  Q 554.28 944.88 555.10 938.24
  A 0.70 0.61 -77.3 0 0 554.72 937.53
  L 551.82 936.39
  A 0.76 0.65 -58.1 0 0 551.03 936.64
  Q 546.65 941.79 542.56 936.67
  A 0.90 0.83 65.7 0 0 541.76 936.33
  Q 537.58 936.93 538.59 940.89
  A 1.04 0.71 65.1 0 1 538.44 941.79
  L 536.05 944.20
  A 1.05 0.69 23.4 0 1 535.15 944.36
  Q 531.12 943.40 530.68 947.45
  A 1.16 0.89 -69.7 0 0 530.96 948.34
  L 532.78 950.02
  A 1.72 0.73 32.4 0 1 533.32 950.80
  Z
  M 577.08 1018.67
  L 653.03 979.71
  A 0.84 0.83 -13.4 0 0 653.48 978.99
  L 653.58 955.74
  A 0.50 0.50 76.0 0 0 652.85 955.30
  L 546.74 1011.31
  A 0.85 0.83 -14.3 0 0 546.29 1012.05
  L 546.28 1025.49
  A 0.88 0.84 16.6 0 0 546.71 1026.24
  L 653.67 1088.91
  Q 654.30 1089.28 654.29 1088.55
  L 654.23 1063.29
  A 0.88 0.87 -75.3 0 0 653.79 1062.53
  L 577.07 1019.41
  Q 576.39 1019.03 577.08 1018.67
  Z
  M 872.70 1018.82
  Q 872.96 1018.95 872.71 1019.09
  L 795.84 1062.49
  A 1.72 1.71 74.0 0 0 794.96 1064.09
  Q 795.59 1076.13 794.96 1088.15
  Q 794.89 1089.46 796.02 1088.80
  L 902.79 1026.24
  A 0.90 0.87 -15.7 0 0 903.23 1025.48
  L 903.21 1012.05
  A 0.85 0.83 14.3 0 0 902.76 1011.31
  L 795.97 955.27
  A 0.44 0.44 -76.0 0 0 795.33 955.66
  L 795.19 978.52
  A 1.14 1.10 -76.6 0 0 795.79 979.54
  L 872.70 1018.82
  Z
  M 964.22 1029.38
  C 966.70 1028.58 968.51 1031.51 967.73 1033.66
  A 0.80 0.71 -60.2 0 0 967.90 1034.48
  Q 970.25 1036.57 972.30 1034.54
  A 1.96 1.14 -61.7 0 1 973.13 1034.03
  Q 975.62 1033.42 976.48 1035.63
  A 0.88 0.71 79.1 0 0 977.13 1036.18
  Q 978.39 1036.28 979.51 1035.72
  A 0.85 0.77 77.2 0 0 979.93 1034.97
  Q 979.92 1030.30 984.53 1030.93
  A 1.11 0.96 24.5 0 0 985.39 1030.68
  Q 987.51 1028.64 985.28 1027.01
  A 1.36 1.01 18.6 0 1 984.75 1026.25
  Q 984.20 1023.57 986.37 1022.31
  A 1.14 0.87 -15.7 0 0 986.92 1021.58
  Q 987.11 1020.10 986.07 1019.09
  A 1.27 0.89 -17.5 0 0 985.19 1018.81
  Q 982.73 1018.91 981.70 1016.65
  A 1.68 1.15 -58.6 0 1 981.65 1015.69
  Q 982.28 1013.07 979.73 1012.39
  A 0.92 0.83 -59.3 0 0 978.89 1012.65
  Q 975.79 1015.83 972.98 1012.17
  A 0.93 0.67 60.4 0 0 972.18 1011.80
  L 970.00 1012.32
  A 0.74 0.56 84.2 0 0 969.57 1013.02
  Q 969.70 1017.77 964.90 1017.03
  A 0.81 0.60 15.0 0 0 964.11 1017.34
  L 963.13 1019.35
  A 0.69 0.53 31.8 0 0 963.41 1020.10
  Q 965.60 1021.62 964.65 1024.34
  A 1.42 1.09 -10.2 0 1 964.02 1025.03
  Q 961.32 1026.51 963.43 1029.17
  A 0.76 0.67 -26.7 0 0 964.22 1029.38
  Z
  M 510.93 1121.25
  Q 511.37 1122.15 511.32 1123.18
  A 0.94 0.75 -75.8 0 0 511.68 1123.98
  Q 512.56 1124.52 513.60 1124.44
  A 1.31 0.80 -63.7 0 0 514.38 1123.95
  C 516.39 1121.41 517.51 1125.64 519.67 1124.12
  A 0.95 0.72 72.2 0 0 519.96 1123.30
  Q 519.76 1121.79 520.84 1120.76
  A 1.13 0.87 23.6 0 1 521.72 1120.54
  Q 523.70 1120.88 523.98 1119.01
  A 1.05 0.81 30.4 0 0 523.65 1118.19
  Q 521.66 1116.28 523.46 1114.44
  A 1.60 0.77 -34.4 0 0 523.94 1113.60
  Q 524.03 1112.80 523.39 1112.22
  A 1.47 0.82 -12.6 0 0 522.49 1111.95
  C 518.36 1111.91 521.30 1107.86 518.40 1107.82
  A 1.28 0.76 -59.4 0 0 517.60 1108.26
  Q 516.69 1109.27 515.26 1109.26
  A 1.13 0.83 66.3 0 1 514.48 1108.81
  Q 513.26 1107.15 511.62 1108.43
  A 1.01 0.82 72.2 0 0 511.30 1109.25
  Q 511.54 1112.07 508.75 1111.78
  A 0.92 0.72 17.0 0 0 507.95 1112.09
  Q 507.53 1112.73 507.47 1113.53
  A 1.24 0.91 29.7 0 0 507.85 1114.38
  Q 509.72 1116.23 507.76 1118.09
  A 1.49 0.77 -32.9 0 0 507.29 1118.91
  Q 507.25 1119.59 507.72 1120.13
  A 1.29 0.41 2.3 0 0 508.58 1120.44
  L 510.22 1120.66
  A 1.07 0.77 75.5 0 1 510.93 1121.25
  Z
  M 631.47 1147.35
  C 629.86 1145.35 628.33 1145.23 629.09 1142.14
  C 629.70 1139.68 633.43 1139.13 630.26 1135.59
  A 0.99 0.86 -21.9 0 0 629.42 1135.30
  Q 625.59 1135.83 624.05 1132.52
  A 1.23 0.88 -52.1 0 1 624.09 1131.62
  C 625.62 1128.12 619.92 1126.20 617.89 1130.18
  A 0.76 0.59 14.1 0 1 617.19 1130.49
  L 614.21 1130.18
  A 0.99 0.78 -6.8 0 1 613.49 1129.74
  Q 611.51 1125.92 608.11 1128.98
  A 0.99 0.87 66.4 0 0 607.84 1129.82
  Q 608.38 1133.34 605.38 1135.26
  A 1.30 1.09 32.0 0 1 604.46 1135.39
  Q 600.27 1134.39 600.33 1138.66
  A 1.27 1.12 24.2 0 0 600.71 1139.49
  Q 605.04 1143.68 600.47 1147.42
  A 0.95 0.87 -24.6 0 0 600.13 1148.23
  Q 600.60 1152.13 604.19 1151.33
  A 1.64 1.18 -31.5 0 1 605.14 1151.40
  Q 608.57 1152.96 607.78 1156.79
  A 0.83 0.74 -68.0 0 0 608.07 1157.59
  Q 609.58 1158.71 611.51 1159.02
  A 0.90 0.85 -64.3 0 0 612.32 1158.71
  Q 616.42 1153.87 620.28 1158.86
  A 0.63 0.62 -31.0 0 0 621.03 1159.04
  L 623.52 1157.92
  A 0.66 0.63 -16.2 0 0 623.91 1157.24
  Q 623.02 1150.59 629.75 1151.39
  A 0.70 0.63 13.4 0 0 630.46 1151.00
  L 631.60 1148.23
  A 0.86 0.86 -53.5 0 0 631.47 1147.35
  Z
  M 779.51 1164.31
  Q 780.32 1169.40 783.86 1165.98
  A 0.66 0.59 -49.2 0 1 784.63 1165.88
  L 786.63 1167.20
  A 0.82 0.52 37.8 0 0 787.48 1167.28
  L 788.22 1166.61
  A 1.23 0.53 80.7 0 0 788.45 1165.70
  C 788.24 1162.05 791.98 1164.61 792.51 1161.94
  A 0.97 0.76 29.4 0 0 792.17 1161.12
  Q 790.01 1159.27 791.99 1157.19
  C 793.93 1155.14 789.93 1154.74 789.01 1154.12
  A 1.11 0.98 -77.3 0 1 788.57 1153.32
  Q 788.21 1149.11 785.10 1151.94
  A 1.22 0.93 -58.2 0 1 784.24 1152.27
  Q 783.02 1152.13 782.24 1151.18
  A 1.15 0.71 62.0 0 0 781.47 1150.73
  Q 780.82 1150.74 780.33 1151.21
  A 1.25 0.78 76.0 0 0 780.05 1152.08
  Q 780.14 1154.89 777.30 1154.81
  A 1.14 0.88 16.3 0 0 776.45 1155.14
  Q 775.27 1156.57 776.75 1157.85
  A 1.43 0.86 28.1 0 1 777.23 1158.65
  Q 777.35 1160.01 776.26 1161.05
  Q 774.48 1162.74 776.58 1163.18
  L 778.95 1163.67
  A 0.80 0.70 89.8 0 1 779.51 1164.31
  Z
  M 864.77 1171.90
  Q 861.87 1171.40 862.00 1174.50
  A 1.14 1.00 20.2 0 0 862.43 1175.29
  Q 865.75 1177.88 862.59 1180.69
  A 1.68 1.07 -25.8 0 0 862.08 1181.51
  Q 861.84 1182.80 862.71 1183.87
  A 1.05 0.85 -18.1 0 0 863.55 1184.19
  Q 868.28 1183.88 867.84 1188.53
  A 0.88 0.78 -72.4 0 0 868.19 1189.32
  Q 869.24 1190.02 870.55 1190.25
  A 0.95 0.83 -62.1 0 0 871.36 1189.94
  C 872.84 1188.26 875.68 1187.04 876.81 1189.49
  A 1.10 0.77 77.3 0 0 877.47 1190.09
  Q 879.24 1190.43 880.31 1188.93
  A 1.28 0.98 62.0 0 0 880.46 1188.02
  C 879.31 1182.45 886.00 1186.32 886.23 1181.80
  A 1.14 0.90 25.6 0 0 885.83 1180.98
  Q 882.44 1178.01 885.91 1175.06
  A 1.00 0.86 -26.3 0 0 886.26 1174.24
  Q 885.86 1171.26 882.75 1171.71
  A 1.50 1.03 -24.8 0 1 881.82 1171.55
  C 879.08 1169.73 881.72 1166.25 877.97 1165.96
  A 1.12 0.97 -64.7 0 0 877.13 1166.33
  Q 873.99 1169.87 871.01 1166.15
  A 0.77 0.56 55.8 0 0 870.21 1165.86
  L 868.06 1166.92
  A 0.81 0.55 74.3 0 0 867.79 1167.73
  Q 868.35 1170.68 865.72 1171.82
  A 1.89 1.20 27.6 0 1 864.77 1171.90
  Z
  M 630.98 1205.07
  A 4.91 4.91 0.0 0 0 626.07 1200.16
  A 4.91 4.91 0.0 0 0 621.16 1205.07
  A 4.91 4.91 0.0 0 0 626.07 1209.98
  A 4.91 4.91 0.0 0 0 630.98 1205.07
  Z
  M 809.56 1220.63
  A 4.85 4.85 0.0 0 0 804.71 1215.78
  A 4.85 4.85 0.0 0 0 799.86 1220.63
  A 4.85 4.85 0.0 0 0 804.71 1225.48
  A 4.85 4.85 0.0 0 0 809.56 1220.63
  Z
  M 731.80 1226.21
  A 4.86 4.86 0.0 0 0 726.94 1221.35
  A 4.86 4.86 0.0 0 0 722.08 1226.21
  A 4.86 4.86 0.0 0 0 726.94 1231.07
  A 4.86 4.86 0.0 0 0 731.80 1226.21
  Z"
/>
<path fill="#9ac3d8" d="
  M 463.30 889.58
  C 461.76 883.57 471.17 888.79 469.59 881.51
  A 0.92 0.79 65.3 0 1 469.83 880.68
  Q 472.64 878.18 474.55 881.21
  A 1.32 1.04 75.1 0 0 475.28 881.76
  Q 478.36 882.43 479.90 879.99
  A 0.93 0.79 -71.1 0 1 480.64 879.55
  Q 484.43 879.67 483.67 883.16
  A 1.30 1.09 -58.0 0 0 483.80 884.08
  Q 485.42 886.72 488.51 886.26
  A 0.90 0.82 -22.6 0 1 489.32 886.55
  Q 491.49 889.16 488.90 890.93
  A 1.70 1.21 -15.2 0 0 488.30 891.66
  Q 487.20 894.80 489.89 896.47
  A 0.94 0.78 18.9 0 1 490.34 897.21
  Q 490.31 898.74 489.37 899.90
  A 1.04 0.89 19.5 0 1 488.54 900.22
  Q 483.40 899.87 483.69 904.96
  A 1.30 0.99 69.9 0 1 483.42 905.83
  Q 482.37 906.97 480.86 906.92
  A 0.99 0.82 72.1 0 1 480.12 906.45
  Q 478.69 904.09 475.72 904.75
  A 1.37 1.07 -74.2 0 0 474.98 905.29
  Q 473.13 908.07 469.99 906.04
  A 0.83 0.79 -71.8 0 1 469.63 905.27
  Q 470.16 899.68 464.43 900.22
  A 0.70 0.61 -11.5 0 1 463.73 899.82
  L 462.91 897.41
  A 0.71 0.63 -28.3 0 1 463.19 896.65
  Q 467.37 893.77 463.81 890.39
  A 1.85 1.33 22.1 0 1 463.30 889.58
  Z
  M 482.27 893.26
  A 5.62 5.62 0.0 0 0 476.65 887.64
  A 5.62 5.62 0.0 0 0 471.03 893.26
  A 5.62 5.62 0.0 0 0 476.65 898.88
  A 5.62 5.62 0.0 0 0 482.27 893.26
  Z"
/>
<path fill="#9ac3d8" d="
  M 906.04 889.25
  Q 906.73 891.32 909.25 890.46
  Q 909.95 890.90 910.94 890.86
  A 0.98 0.83 -73.3 0 0 911.67 890.38
  Q 914.08 886.40 917.87 889.65
  A 0.91 0.84 -65.5 0 1 918.15 890.49
  Q 916.83 897.80 924.19 897.80
  A 0.90 0.83 -13.7 0 1 924.95 898.22
  Q 925.88 899.90 925.88 901.78
  A 1.01 0.93 -18.8 0 1 925.45 902.57
  Q 919.49 906.72 924.89 911.76
  A 0.89 0.82 30.1 0 1 925.15 912.59
  Q 924.62 914.58 923.07 915.96
  A 0.91 0.79 31.6 0 1 922.22 916.10
  Q 918.01 914.67 915.90 918.59
  A 1.83 1.24 65.6 0 0 915.74 919.53
  Q 916.14 923.81 911.83 923.91
  A 0.96 0.86 71.0 0 1 911.06 923.48
  Q 907.13 917.52 901.91 922.83
  A 0.80 0.59 -52.0 0 1 901.09 923.06
  L 897.28 921.06
  A 0.71 0.53 -68.6 0 1 897.06 920.27
  Q 898.39 916.13 894.87 913.76
  A 1.45 1.16 -26.2 0 0 893.96 913.56
  Q 889.06 914.11 889.35 909.10
  A 0.92 0.84 -13.3 0 1 889.84 908.38
  Q 893.63 906.47 892.70 902.06
  A 1.28 1.05 14.9 0 0 892.17 901.32
  Q 888.69 899.04 891.58 895.76
  C 892.07 895.20 892.16 894.10 893.46 895.00
  Q 895.60 896.42 897.25 894.79
  L 899.18 893.12
  A 1.26 0.83 78.3 0 0 899.51 892.29
  L 899.66 888.57
  A 0.80 0.60 -8.4 0 1 900.25 887.97
  L 903.53 887.11
  A 0.92 0.68 -24.3 0 1 904.38 887.29
  L 906.04 889.25
  Z
  M 915.02 905.51
  A 7.36 7.36 0.0 0 0 907.66 898.15
  A 7.36 7.36 0.0 0 0 900.30 905.51
  A 7.36 7.36 0.0 0 0 907.66 912.87
  A 7.36 7.36 0.0 0 0 915.02 905.51
  Z"
/>
<circle fill="#01518c" cx="476.65" cy="893.26" r="5.62"/>
<path fill="#97bed3" d="
  M 906.04 889.25
  L 909.25 890.46
  Q 906.73 891.32 906.04 889.25
  Z"
/>
<path fill="#97bed3" d="
  M 897.25 894.79
  Q 895.60 896.42 893.46 895.00
  L 897.25 894.79
  Z"
/>
<circle fill="#01518c" cx="907.66" cy="905.51" r="7.36"/>
<path fill="#97bed3" d="
  M 675.31 1100.39
  A 0.37 0.36 25.8 0 1 675.14 1099.91
  L 751.48 934.41
  A 0.60 0.60 -64.1 0 1 752.29 934.13
  L 772.82 944.76
  A 0.53 0.53 -64.2 0 1 773.06 945.45
  L 696.97 1110.18
  A 0.51 0.51 -64.7 0 1 696.29 1110.43
  L 675.31 1100.39
  Z"
/>
<path fill="#9ac3d8" d="
  M 532.78 950.02
  L 530.96 948.34
  A 1.16 0.89 -69.7 0 1 530.68 947.45
  Q 531.12 943.40 535.15 944.36
  A 1.05 0.69 23.4 0 0 536.05 944.20
  L 538.44 941.79
  A 1.04 0.71 65.1 0 0 538.59 940.89
  Q 537.58 936.93 541.76 936.33
  A 0.90 0.83 65.7 0 1 542.56 936.67
  Q 546.65 941.79 551.03 936.64
  A 0.76 0.65 -58.1 0 1 551.82 936.39
  L 554.72 937.53
  A 0.70 0.61 -77.3 0 1 555.10 938.24
  Q 554.28 944.88 561.01 944.31
  A 0.78 0.59 -10.6 0 1 561.76 944.68
  L 562.92 947.66
  A 0.79 0.59 -32.1 0 1 562.61 948.45
  Q 557.60 952.36 562.43 956.48
  A 1.21 1.05 21.9 0 1 562.85 957.29
  Q 562.94 959.32 561.34 960.65
  A 1.18 0.99 27.2 0 1 560.46 960.85
  Q 556.37 960.15 555.11 964.04
  A 1.56 1.10 50.5 0 0 555.18 964.97
  C 556.35 967.83 551.76 970.36 549.80 966.88
  A 1.32 1.06 79.2 0 0 549.10 966.28
  Q 545.37 965.11 543.41 968.26
  A 0.91 0.79 -70.9 0 1 542.66 968.69
  Q 540.46 968.61 538.86 967.36
  A 1.00 0.87 -71.5 0 1 538.52 966.53
  Q 539.09 960.11 532.78 960.88
  A 0.94 0.83 -20.5 0 1 531.97 960.57
  Q 530.81 959.15 530.62 957.31
  A 0.80 0.72 -19.2 0 1 531.02 956.58
  Q 534.32 954.67 533.32 950.80
  A 1.72 0.73 32.4 0 0 532.78 950.02
  Z
  M 553.42 952.56
  A 6.63 6.63 0.0 0 0 546.79 945.93
  A 6.63 6.63 0.0 0 0 540.16 952.56
  A 6.63 6.63 0.0 0 0 546.79 959.19
  A 6.63 6.63 0.0 0 0 553.42 952.56
  Z"
/>
<circle fill="#01518c" cx="546.79" cy="952.56" r="6.63"/>
<path fill="#97bed3" d="
  M 577.08 1018.67
  Q 576.39 1019.03 577.07 1019.41
  L 653.79 1062.53
  A 0.88 0.87 -75.3 0 1 654.23 1063.29
  L 654.29 1088.55
  Q 654.30 1089.28 653.67 1088.91
  L 546.71 1026.24
  A 0.88 0.84 16.6 0 1 546.28 1025.49
  L 546.29 1012.05
  A 0.85 0.83 -14.3 0 1 546.74 1011.31
  L 652.85 955.30
  A 0.50 0.50 76.0 0 1 653.58 955.74
  L 653.48 978.99
  A 0.84 0.83 -13.4 0 1 653.03 979.71
  L 577.08 1018.67
  Z"
/>
<path fill="#97bed3" d="
  M 872.70 1018.82
  L 795.79 979.54
  A 1.14 1.10 -76.6 0 1 795.19 978.52
  L 795.33 955.66
  A 0.44 0.44 -76.0 0 1 795.97 955.27
  L 902.76 1011.31
  A 0.85 0.83 14.3 0 1 903.21 1012.05
  L 903.23 1025.48
  A 0.90 0.87 -15.7 0 1 902.79 1026.24
  L 796.02 1088.80
  Q 794.89 1089.46 794.96 1088.15
  Q 795.59 1076.13 794.96 1064.09
  A 1.72 1.71 74.0 0 1 795.84 1062.49
  L 872.71 1019.09
  Q 872.96 1018.95 872.70 1018.82
  Z"
/>
<path fill="#9ac3d8" d="
  M 967.73 1033.66
  C 968.51 1031.51 966.70 1028.58 964.22 1029.38
  A 0.76 0.67 -26.7 0 1 963.43 1029.17
  Q 961.32 1026.51 964.02 1025.03
  A 1.42 1.09 -10.2 0 0 964.65 1024.34
  Q 965.60 1021.62 963.41 1020.10
  A 0.69 0.53 31.8 0 1 963.13 1019.35
  L 964.11 1017.34
  A 0.81 0.60 15.0 0 1 964.90 1017.03
  Q 969.70 1017.77 969.57 1013.02
  A 0.74 0.56 84.2 0 1 970.00 1012.32
  L 972.18 1011.80
  A 0.93 0.67 60.4 0 1 972.98 1012.17
  Q 975.79 1015.83 978.89 1012.65
  A 0.92 0.83 -59.3 0 1 979.73 1012.39
  Q 982.28 1013.07 981.65 1015.69
  A 1.68 1.15 -58.6 0 0 981.70 1016.65
  Q 982.73 1018.91 985.19 1018.81
  A 1.27 0.89 -17.5 0 1 986.07 1019.09
  Q 987.11 1020.10 986.92 1021.58
  A 1.14 0.87 -15.7 0 1 986.37 1022.31
  Q 984.20 1023.57 984.75 1026.25
  A 1.36 1.01 18.6 0 0 985.28 1027.01
  Q 987.51 1028.64 985.39 1030.68
  A 1.11 0.96 24.5 0 1 984.53 1030.93
  Q 979.92 1030.30 979.93 1034.97
  A 0.85 0.77 77.2 0 1 979.51 1035.72
  Q 978.39 1036.28 977.13 1036.18
  A 0.88 0.71 79.1 0 1 976.48 1035.63
  Q 975.62 1033.42 973.13 1034.03
  A 1.96 1.14 -61.7 0 0 972.30 1034.54
  Q 970.25 1036.57 967.90 1034.48
  A 0.80 0.71 -60.2 0 1 967.73 1033.66
  Z
  M 979.61 1024.01
  A 4.88 4.88 0.0 0 0 974.73 1019.13
  A 4.88 4.88 0.0 0 0 969.85 1024.01
  A 4.88 4.88 0.0 0 0 974.73 1028.89
  A 4.88 4.88 0.0 0 0 979.61 1024.01
  Z"
/>
<circle fill="#01518c" cx="974.73" cy="1024.01" r="4.88"/>
<path fill="#9ac3d8" d="
  M 510.22 1120.66
  L 508.58 1120.44
  A 1.29 0.41 2.3 0 1 507.72 1120.13
  Q 507.25 1119.59 507.29 1118.91
  A 1.49 0.77 -32.9 0 1 507.76 1118.09
  Q 509.72 1116.23 507.85 1114.38
  A 1.24 0.91 29.7 0 1 507.47 1113.53
  Q 507.53 1112.73 507.95 1112.09
  A 0.92 0.72 17.0 0 1 508.75 1111.78
  Q 511.54 1112.07 511.30 1109.25
  A 1.01 0.82 72.2 0 1 511.62 1108.43
  Q 513.26 1107.15 514.48 1108.81
  A 1.13 0.83 66.3 0 0 515.26 1109.26
  Q 516.69 1109.27 517.60 1108.26
  A 1.28 0.76 -59.4 0 1 518.40 1107.82
  C 521.30 1107.86 518.36 1111.91 522.49 1111.95
  A 1.47 0.82 -12.6 0 1 523.39 1112.22
  Q 524.03 1112.80 523.94 1113.60
  A 1.60 0.77 -34.4 0 1 523.46 1114.44
  Q 521.66 1116.28 523.65 1118.19
  A 1.05 0.81 30.4 0 1 523.98 1119.01
  Q 523.70 1120.88 521.72 1120.54
  A 1.13 0.87 23.6 0 0 520.84 1120.76
  Q 519.76 1121.79 519.96 1123.30
  A 0.95 0.72 72.2 0 1 519.67 1124.12
  C 517.51 1125.64 516.39 1121.41 514.38 1123.95
  A 1.31 0.80 -63.7 0 1 513.60 1124.44
  Q 512.56 1124.52 511.68 1123.98
  A 0.94 0.75 -75.8 0 1 511.32 1123.18
  Q 511.37 1122.15 510.93 1121.25
  A 1.07 0.77 75.5 0 0 510.22 1120.66
  Z
  M 519.06 1116.22
  A 3.40 3.40 0.0 0 0 515.66 1112.82
  A 3.40 3.40 0.0 0 0 512.26 1116.22
  A 3.40 3.40 0.0 0 0 515.66 1119.62
  A 3.40 3.40 0.0 0 0 519.06 1116.22
  Z"
/>
<circle fill="#01518c" cx="515.66" cy="1116.22" r="3.40"/>
<path fill="#9ac3d8" d="
  M 629.09 1142.14
  C 628.33 1145.23 629.86 1145.35 631.47 1147.35
  A 0.86 0.86 -53.5 0 1 631.60 1148.23
  L 630.46 1151.00
  A 0.70 0.63 13.4 0 1 629.75 1151.39
  Q 623.02 1150.59 623.91 1157.24
  A 0.66 0.63 -16.2 0 1 623.52 1157.92
  L 621.03 1159.04
  A 0.63 0.62 -31.0 0 1 620.28 1158.86
  Q 616.42 1153.87 612.32 1158.71
  A 0.90 0.85 -64.3 0 1 611.51 1159.02
  Q 609.58 1158.71 608.07 1157.59
  A 0.83 0.74 -68.0 0 1 607.78 1156.79
  Q 608.57 1152.96 605.14 1151.40
  A 1.64 1.18 -31.5 0 0 604.19 1151.33
  Q 600.60 1152.13 600.13 1148.23
  A 0.95 0.87 -24.6 0 1 600.47 1147.42
  Q 605.04 1143.68 600.71 1139.49
  A 1.27 1.12 24.2 0 1 600.33 1138.66
  Q 600.27 1134.39 604.46 1135.39
  A 1.30 1.09 32.0 0 0 605.38 1135.26
  Q 608.38 1133.34 607.84 1129.82
  A 0.99 0.87 66.4 0 1 608.11 1128.98
  Q 611.51 1125.92 613.49 1129.74
  A 0.99 0.78 -6.8 0 0 614.21 1130.18
  L 617.19 1130.49
  A 0.76 0.59 14.1 0 0 617.89 1130.18
  C 619.92 1126.20 625.62 1128.12 624.09 1131.62
  A 1.23 0.88 -52.1 0 0 624.05 1132.52
  Q 625.59 1135.83 629.42 1135.30
  A 0.99 0.86 -21.9 0 1 630.26 1135.59
  C 633.43 1139.13 629.70 1139.68 629.09 1142.14
  Z
  M 622.21 1143.37
  A 6.38 6.38 0.0 0 0 615.83 1136.99
  A 6.38 6.38 0.0 0 0 609.45 1143.37
  A 6.38 6.38 0.0 0 0 615.83 1149.75
  A 6.38 6.38 0.0 0 0 622.21 1143.37
  Z"
/>
<circle fill="#01518c" cx="615.83" cy="1143.37" r="6.38"/>
<path fill="#9ac3d8" d="
  M 778.95 1163.67
  L 776.58 1163.18
  Q 774.48 1162.74 776.26 1161.05
  Q 777.35 1160.01 777.23 1158.65
  A 1.43 0.86 28.1 0 0 776.75 1157.85
  Q 775.27 1156.57 776.45 1155.14
  A 1.14 0.88 16.3 0 1 777.30 1154.81
  Q 780.14 1154.89 780.05 1152.08
  A 1.25 0.78 76.0 0 1 780.33 1151.21
  Q 780.82 1150.74 781.47 1150.73
  A 1.15 0.71 62.0 0 1 782.24 1151.18
  Q 783.02 1152.13 784.24 1152.27
  A 1.22 0.93 -58.2 0 0 785.10 1151.94
  Q 788.21 1149.11 788.57 1153.32
  A 1.11 0.98 -77.3 0 0 789.01 1154.12
  C 789.93 1154.74 793.93 1155.14 791.99 1157.19
  Q 790.01 1159.27 792.17 1161.12
  A 0.97 0.76 29.4 0 1 792.51 1161.94
  C 791.98 1164.61 788.24 1162.05 788.45 1165.70
  A 1.23 0.53 80.7 0 1 788.22 1166.61
  L 787.48 1167.28
  A 0.82 0.52 37.8 0 1 786.63 1167.20
  L 784.63 1165.88
  A 0.66 0.59 -49.2 0 0 783.86 1165.98
  Q 780.32 1169.40 779.51 1164.31
  A 0.80 0.70 89.8 0 0 778.95 1163.67
  Z
  M 787.58 1159.11
  A 3.40 3.40 0.0 0 0 784.18 1155.71
  A 3.40 3.40 0.0 0 0 780.78 1159.11
  A 3.40 3.40 0.0 0 0 784.18 1162.51
  A 3.40 3.40 0.0 0 0 787.58 1159.11
  Z"
/>
<circle fill="#01518c" cx="784.18" cy="1159.11" r="3.40"/>
<path fill="#9ac3d8" d="
  M 865.72 1171.82
  Q 868.35 1170.68 867.79 1167.73
  A 0.81 0.55 74.3 0 1 868.06 1166.92
  L 870.21 1165.86
  A 0.77 0.56 55.8 0 1 871.01 1166.15
  Q 873.99 1169.87 877.13 1166.33
  A 1.12 0.97 -64.7 0 1 877.97 1165.96
  C 881.72 1166.25 879.08 1169.73 881.82 1171.55
  A 1.50 1.03 -24.8 0 0 882.75 1171.71
  Q 885.86 1171.26 886.26 1174.24
  A 1.00 0.86 -26.3 0 1 885.91 1175.06
  Q 882.44 1178.01 885.83 1180.98
  A 1.14 0.90 25.6 0 1 886.23 1181.80
  C 886.00 1186.32 879.31 1182.45 880.46 1188.02
  A 1.28 0.98 62.0 0 1 880.31 1188.93
  Q 879.24 1190.43 877.47 1190.09
  A 1.10 0.77 77.3 0 1 876.81 1189.49
  C 875.68 1187.04 872.84 1188.26 871.36 1189.94
  A 0.95 0.83 -62.1 0 1 870.55 1190.25
  Q 869.24 1190.02 868.19 1189.32
  A 0.88 0.78 -72.4 0 1 867.84 1188.53
  Q 868.28 1183.88 863.55 1184.19
  A 1.05 0.85 -18.1 0 1 862.71 1183.87
  Q 861.84 1182.80 862.08 1181.51
  A 1.68 1.07 -25.8 0 1 862.59 1180.69
  Q 865.75 1177.88 862.43 1175.29
  A 1.14 1.00 20.2 0 1 862.00 1174.50
  Q 861.87 1171.40 864.77 1171.90
  A 1.89 1.20 27.6 0 0 865.72 1171.82
  Z
  M 879.07 1178.06
  A 4.95 4.95 0.0 0 0 874.12 1173.11
  A 4.95 4.95 0.0 0 0 869.17 1178.06
  A 4.95 4.95 0.0 0 0 874.12 1183.01
  A 4.95 4.95 0.0 0 0 879.07 1178.06
  Z"
/>
<circle fill="#01518c" cx="874.12" cy="1178.06" r="4.95"/>
<path fill="#9ac3d8" d="
  M 630.98 1205.07
  A 4.91 4.91 0.0 0 1 626.07 1209.98
  A 4.91 4.91 0.0 0 1 621.16 1205.07
  A 4.91 4.91 0.0 0 1 626.07 1200.16
  A 4.91 4.91 0.0 0 1 630.98 1205.07
  Z
  M 628.28 1205.06
  A 2.22 2.22 0.0 0 0 626.06 1202.84
  A 2.22 2.22 0.0 0 0 623.84 1205.06
  A 2.22 2.22 0.0 0 0 626.06 1207.28
  A 2.22 2.22 0.0 0 0 628.28 1205.06
  Z"
/>
<circle fill="#01518c" cx="626.06" cy="1205.06" r="2.22"/>
<path fill="#9ac3d8" d="
  M 809.56 1220.63
  A 4.85 4.85 0.0 0 1 804.71 1225.48
  A 4.85 4.85 0.0 0 1 799.86 1220.63
  A 4.85 4.85 0.0 0 1 804.71 1215.78
  A 4.85 4.85 0.0 0 1 809.56 1220.63
  Z
  M 806.99 1220.75
  A 2.25 2.25 0.0 0 0 804.74 1218.50
  A 2.25 2.25 0.0 0 0 802.49 1220.75
  A 2.25 2.25 0.0 0 0 804.74 1223.00
  A 2.25 2.25 0.0 0 0 806.99 1220.75
  Z"
/>
<circle fill="#01518c" cx="804.74" cy="1220.75" r="2.25"/>
<path fill="#9ac3d8" d="
  M 731.80 1226.21
  A 4.86 4.86 0.0 0 1 726.94 1231.07
  A 4.86 4.86 0.0 0 1 722.08 1226.21
  A 4.86 4.86 0.0 0 1 726.94 1221.35
  A 4.86 4.86 0.0 0 1 731.80 1226.21
  Z
  M 729.23 1226.29
  A 2.27 2.27 0.0 0 0 726.96 1224.02
  A 2.27 2.27 0.0 0 0 724.69 1226.29
  A 2.27 2.27 0.0 0 0 726.96 1228.56
  A 2.27 2.27 0.0 0 0 729.23 1226.29
  Z"
/>
<circle fill="#01518c" cx="726.96" cy="1226.29" r="2.27"/>
</svg>
